<?xml version="1.0" encoding="utf-8"?>
<!-- Generator: Adobe Illustrator 16.0.0, SVG Export Plug-In . SVG Version: 6.00 Build 0)  -->
<!DOCTYPE svg PUBLIC "-//W3C//DTD SVG 1.1//EN" "http://www.w3.org/Graphics/SVG/1.1/DTD/svg11.dtd">
<svg version="1.1" id="Layer_1" xmlns="http://www.w3.org/2000/svg" xmlns:xlink="http://www.w3.org/1999/xlink" x="0px" y="0px"
	 width="4251.971px" height="2834.65px" viewBox="0 0 4251.971 2834.65" enable-background="new 0 0 4251.971 2834.65"
	 xml:space="preserve">
<path fill="#FFFFFF" d="M3239.273,927.173c135.943,126.066,202.68,281.773,202.68,467.161c0,185.383-66.736,341.094-202.68,469.633
	c-135.948,126.062-299.073,190.321-489.399,190.321c-192.789,0-355.938-64.26-491.862-190.321
	c-133.477-128.539-200.213-284.25-200.213-469.633c0-185.388,66.736-341.095,200.213-467.161
	c135.925-128.524,299.073-192.793,491.862-192.793C2940.2,734.379,3103.325,798.648,3239.273,927.173z"/>
<path fill="#3AD9CE" d="M2225.2,927.173c135.935,126.066,202.671,281.773,202.671,467.161c0,185.383-66.736,341.094-202.671,469.633
	c-135.947,126.062-299.073,190.321-489.414,190.321c-192.774,0-355.923-64.26-491.848-190.321
	c-133.477-128.539-200.213-284.25-200.213-469.633c0-185.388,66.736-341.095,200.213-467.161
	c135.925-128.524,299.073-192.793,491.848-192.793C1926.127,734.379,2089.253,798.648,2225.2,927.173z M1505.925,1626.672
	c61.803,61.802,138.41,93.932,229.861,93.932s168.078-32.13,229.885-93.932c61.779-64.26,93.928-140.887,93.928-232.338
	c0-91.452-32.148-168.083-93.928-229.862c-61.807-64.269-138.434-96.413-229.885-96.413s-168.059,32.144-229.861,96.413
	c-61.802,61.779-93.932,138.41-93.932,229.862C1411.993,1485.785,1444.123,1564.893,1505.925,1626.672z"/>
<path fill="#0F0DA0" d="M3239.273,927.173c135.943,126.066,202.68,281.773,202.68,467.161c0,185.383-66.736,341.094-202.68,469.633
	c-135.948,126.062-299.073,190.321-489.399,190.321c-192.789,0-355.938-64.26-491.862-190.321
	c-133.477-128.539-200.213-284.25-200.213-469.633c0-185.388,66.736-341.095,200.213-467.161
	c135.925-128.524,299.073-192.793,491.862-192.793C2940.2,734.379,3103.325,798.648,3239.273,927.173z"/>
</svg>
