<?xml version="1.0" encoding="utf-8"?>
<!-- Generator: Adobe Illustrator 16.0.0, SVG Export Plug-In . SVG Version: 6.00 Build 0)  -->
<!DOCTYPE svg PUBLIC "-//W3C//DTD SVG 1.1//EN" "http://www.w3.org/Graphics/SVG/1.1/DTD/svg11.dtd">
<svg version="1.1" id="Layer_1" xmlns="http://www.w3.org/2000/svg" xmlns:xlink="http://www.w3.org/1999/xlink" x="0px" y="0px"
	 width="4251.971px" height="2834.65px" viewBox="0 0 4251.971 2834.65" enable-background="new 0 0 4251.971 2834.65"
	 xml:space="preserve">
<path fill="#1C1D26" d="M2850.648,1582.902v-453.216h94.979V1375.1l114.737-131.312h110.275l-146.199,164.211l151.086,174.903
	h-107.088l-97.492-110.25l-25.319,29.103v81.147H2850.648z"/>
<path fill="#1C1D26" d="M1386.295,1582.902v-453.216h94.979V1375.1l114.738-131.312h110.275l-146.199,164.211l151.085,174.903
	h-107.088l-97.492-110.25l-25.319,29.103v81.147H1386.295z"/>
<path fill="#1C1D26" d="M631.185,1582.902v-453.216h187.404c37.611,0,71.394,14.027,102.628,41.435s47.17,63.741,47.17,109
	c0,43.346-15.296,79.041-45.895,107.727s-65.02,42.708-103.904,42.708h-89.238v152.347H631.185z M729.351,1341.314h83.503
	c13.388,0,26.772-4.459,38.884-14.024c12.109-9.561,18.483-25.497,18.483-47.169c0-21.674-6.375-36.973-18.483-46.531
	c-12.112-9.564-25.497-14.663-38.884-14.663h-83.503V1341.314z"/>
<path fill="#1C1D26" d="M1290.276,1292.869c35.058,32.51,52.269,72.667,52.269,120.476c0,47.81-17.211,87.966-52.269,121.114
	c-35.061,32.51-77.129,49.082-126.214,49.082c-49.718,0-91.792-16.572-126.847-49.082c-34.421-33.148-51.632-73.305-51.632-121.114
	c0-47.809,17.211-87.966,51.632-120.476c35.055-33.146,77.129-49.721,126.847-49.721
	C1213.147,1243.148,1255.215,1259.723,1290.276,1292.869z M1104.781,1473.264c15.938,15.938,35.697,24.224,59.282,24.224
	s43.344-8.286,59.282-24.224c15.936-16.572,24.224-36.334,24.224-59.919s-8.289-43.347-24.224-59.279
	c-15.938-16.575-35.697-24.863-59.282-24.863s-43.343,8.289-59.282,24.863c-15.936,15.932-24.221,35.694-24.221,59.279
	S1088.845,1457.33,1104.781,1473.264z"/>
<path fill="#1C1D26" d="M2139.079,1618.398c10.197,3.189,22.946,5.102,38.884,5.102c12.109,0,21.035-2.551,27.408-7.014
	c6.375-4.462,10.837-10.836,13.388-20.395l5.103-14.026l-137.054-339.539h96.891l85.764,222.462l86.56-222.462h93.916
	l-145.764,375.233c-10.836,27.414-22.945,47.176-36.973,59.285c-21.033,18.482-49.715,28.047-86.054,28.047
	c-14.66,0-28.681-1.278-42.068-4.463V1618.398z"/>
<path fill="#1C1D26" d="M2753.137,1292.869c35.055,32.51,52.266,72.667,52.266,120.476c0,47.81-17.211,87.966-52.266,121.114
	c-35.061,32.51-77.135,49.082-126.217,49.082c-49.721,0-91.789-16.572-126.85-49.082c-34.422-33.148-51.633-73.305-51.633-121.114
	c0-47.809,17.211-87.966,51.633-120.476c35.061-33.146,77.129-49.721,126.85-49.721
	C2676.002,1243.148,2718.076,1259.723,2753.137,1292.869z M2567.641,1473.264c15.938,15.938,35.694,24.224,59.279,24.224
	s43.347-8.286,59.285-24.224c15.932-16.572,24.219-36.334,24.219-59.919s-8.287-43.347-24.219-59.279
	c-15.938-16.575-35.7-24.863-59.285-24.863s-43.341,8.289-59.279,24.863c-15.938,15.932-24.224,35.694-24.224,59.279
	S2551.703,1457.33,2567.641,1473.264z"/>
<path fill="#1C1D26" d="M3533.887,1500.678c-17.211,0-23.586-10.204-23.586-35.701v-220.341h-93.537c0,0,0.131,5.956,0.363,16.156
	c-24.233-11.729-50.93-17.644-80.127-17.644c-49.719,0-91.793,16.574-126.848,49.721c-34.422,32.51-51.633,72.667-51.633,120.476
	c0,47.81,17.211,87.966,51.633,121.114c35.055,32.51,77.129,49.082,126.848,49.082c37.021,0,70.049-9.441,99.09-28.023
	c4.875,6.031,11.104,11.557,18.756,16.548c13.387,7.652,31.231,11.476,52.266,11.476c18.489,0,32.51-1.912,42.713-5.102v-79.041
	C3544.084,1500.038,3538.349,1500.678,3533.887,1500.678z M3396.281,1473.264c-15.938,15.938-35.697,24.224-59.281,24.224
	c-23.586,0-43.344-8.286-59.283-24.224c-15.936-15.934-24.221-36.334-24.221-59.919s8.285-43.347,24.221-59.279
	c15.939-16.575,35.697-24.863,59.283-24.863c23.584,0,43.343,8.289,59.281,24.863c15.936,15.932,24.225,35.694,24.225,59.279
	S3412.217,1456.691,3396.281,1473.264z"/>
<path fill="#1C1D26" d="M2071.032,1500.678c-17.21,0-23.585-10.204-23.585-35.701v-220.341h-93.538c0,0,0.13,5.956,0.363,16.156
	c-24.232-11.729-50.929-17.644-80.127-17.644c-49.718,0-91.792,16.574-126.847,49.721c-34.421,32.51-51.632,72.667-51.632,120.476
	c0,47.81,17.211,87.966,51.632,121.114c35.055,32.51,77.129,49.082,126.847,49.082c37.021,0,70.049-9.441,99.09-28.023
	c4.875,6.031,11.104,11.557,18.756,16.548c13.388,7.652,31.231,11.476,52.266,11.476c18.489,0,32.51-1.912,42.713-5.102v-79.041
	C2081.229,1500.038,2075.495,1500.678,2071.032,1500.678z M1933.427,1473.264c-15.938,15.938-35.697,24.224-59.282,24.224
	s-43.344-8.286-59.282-24.224c-15.935-15.934-24.221-36.334-24.221-59.919s8.286-43.347,24.221-59.279
	c15.938-16.575,35.697-24.863,59.282-24.863s43.344,8.289,59.282,24.863c15.936,15.932,24.224,35.694,24.224,59.279
	S1949.362,1456.691,1933.427,1473.264z"/>
<g>
	<path fill="#1C1D26" d="M3584.359,1264.917c-19.695,0-35.709-16.017-35.709-35.708c0-19.687,16.014-35.706,35.709-35.706
		c19.684,0,35.703,16.02,35.703,35.706C3620.062,1248.901,3604.043,1264.917,3584.359,1264.917z M3584.359,1199.627
		c-16.316,0-29.587,13.271-29.587,29.582c0,16.316,13.271,29.587,29.587,29.587c16.311,0,29.588-13.271,29.588-29.587
		C3613.947,1212.898,3600.67,1199.627,3584.359,1199.627z"/>
</g>
<g>
	<path fill="#1C1D26" d="M3572.89,1244.52v-31.037h12.998c2.896,0,5.384,0.979,7.44,2.984c2.089,1.958,3.111,4.364,3.111,7.257
		c0,3.963-2.179,7.391-5.52,8.82l7.576,11.976h-7.751l-6.461-10.331h-0.085h-4.5v10.331H3572.89z M3579.699,1228.134h5.428
		c2.678,0,4.462-1.693,4.462-4.323c0-2.356-1.696-4.091-3.882-4.091h-6.008V1228.134z"/>
</g>
</svg>
