<?xml version="1.0" encoding="utf-8"?>
<!-- Generator: Adobe Illustrator 16.0.0, SVG Export Plug-In . SVG Version: 6.00 Build 0)  -->
<!DOCTYPE svg PUBLIC "-//W3C//DTD SVG 1.1//EN" "http://www.w3.org/Graphics/SVG/1.1/DTD/svg11.dtd">
<svg version="1.1" id="Layer_1" xmlns="http://www.w3.org/2000/svg" xmlns:xlink="http://www.w3.org/1999/xlink" x="0px" y="0px"
	 width="540.808px" height="515.709px" viewBox="0 0 540.808 515.709" enable-background="new 0 0 540.808 515.709"
	 xml:space="preserve">
<circle fill="#3AD9CE" cx="271.535" cy="257.535" r="246.535"/>
<path fill="#FFFFFF" d="M416.974,151.011l-0.646-0.149l-143.42-48.7c-2.778-0.514-4.923-0.524-7.059-0.026l-143.567,48.79
	c-8.775,2.698-9.139,8.691-9.122,9.864v187.783c0,4.086,2.554,7.576,6.666,9.11l146.298,56.439c0.569,0.24,1.66,0.45,3.335,0.45l0,0
	c1.84,0,3.294-0.251,3.666-0.386L419.54,357.76c4.142-1.545,6.695-5.033,6.695-9.124V160.855
	C426.235,160.5,426.13,152.186,416.974,151.011z M259.422,390.163l-126.365-48.791V175.777l126.365,48.105V390.163z
	 M269.699,205.931L152.335,161.31l117.364-39.335l117.362,39.335L269.699,205.931z M406.339,341.372l-126.362,48.791V224.285
	l126.362-48.523V341.372z"/>
<path fill="#0A040C" stroke="#000000" stroke-width="2" stroke-miterlimit="10" d="M1827.182,461.138h-81.804
	c-4.602,0-8.348-3.744-8.348-8.348v-51.66c0-1.537,1.246-2.781,2.784-2.781c1.535,0,2.782,1.244,2.782,2.781v51.66
	c0,1.535,1.248,2.783,2.781,2.783h81.804c1.535,0,2.784-1.248,2.784-2.783V349.285c0-1.535-1.249-2.783-2.784-2.783h-81.804
	c-1.533,0-2.781,1.248-2.781,2.783v28.379c0,1.539-1.247,2.783-2.782,2.783c-1.538,0-2.784-1.244-2.784-2.783v-28.379
	c0-4.604,3.746-8.348,8.348-8.348h81.804c4.604,0,8.348,3.744,8.348,8.348v103.506
	C1835.529,457.394,1831.785,461.138,1827.182,461.138"/>
<path fill="#0A040C" stroke="#000000" stroke-width="2" stroke-miterlimit="10" d="M1739.814,392.908
	c-0.732,0-1.45-0.297-1.969-0.816c-0.516-0.52-0.815-1.234-0.815-1.969c0-0.73,0.297-1.447,0.815-1.967s1.236-0.812,1.969-0.812
	c0.73,0,1.448,0.293,1.966,0.812c0.519,0.52,0.816,1.234,0.816,1.967c0,0.734-0.298,1.451-0.816,1.969
	C1741.263,392.611,1740.545,392.908,1739.814,392.908"/>
<path fill="#0A040C" stroke="#000000" stroke-width="2" stroke-miterlimit="10" d="M1750.959,472.285
	c-0.73,0-1.448-0.295-1.967-0.814c-0.518-0.518-0.815-1.232-0.815-1.967c0-0.732,0.298-1.449,0.815-1.969
	c0.519-0.518,1.236-0.814,1.967-0.814c0.734,0,1.45,0.297,1.969,0.814c0.516,0.52,0.815,1.236,0.815,1.969
	c0,0.734-0.298,1.449-0.815,1.967C1752.409,471.99,1751.693,472.285,1750.959,472.285"/>
<path fill="#0A040C" stroke="#000000" stroke-width="2" stroke-miterlimit="10" d="M1838.33,472.287h-76.239
	c-1.537,0-2.782-1.246-2.782-2.783c0-1.535,1.245-2.781,2.782-2.781h76.239c1.533,0,2.782-1.25,2.782-2.783V354.867
	c0-1.537,1.246-2.783,2.782-2.783c1.537,0,2.781,1.246,2.781,2.783v109.072C1846.676,468.542,1842.933,472.287,1838.33,472.287"/>
<path fill="#0A040C" stroke="#000000" stroke-width="2" stroke-miterlimit="10" d="M1849.478,483.398h-87.369
	c-1.536,0-2.782-1.244-2.782-2.783c0-1.535,1.246-2.781,2.782-2.781h87.369c1.535,0,2.781-1.248,2.781-2.783V365.978
	c0-1.535,1.247-2.781,2.782-2.781c1.537,0,2.784,1.246,2.784,2.781V475.05C1857.825,479.654,1854.079,483.398,1849.478,483.398"/>
<path fill="#0A040C" stroke="#000000" stroke-width="2" stroke-miterlimit="10" d="M1782.105,393.804h-26.71
	c-1.535,0-2.782-1.248-2.782-2.783v-26.713c0-1.535,1.247-2.781,2.782-2.781h26.71c1.538,0,2.784,1.246,2.784,2.781v26.713
	C1784.89,392.556,1783.644,393.804,1782.105,393.804 M1758.177,388.238h21.147v-21.146h-21.147V388.238z"/>
<path fill="#0A040C" stroke="#000000" stroke-width="2" stroke-miterlimit="10" d="M1761.821,420.55L1761.821,420.55
	c-0.737,0-1.444-0.293-1.967-0.814l-5.406-5.408c-1.088-1.086-1.088-2.848,0-3.934c1.087-1.088,2.848-1.088,3.935,0l3.438,3.439
	l7.398-7.396c1.085-1.088,2.848-1.088,3.936,0c1.085,1.086,1.085,2.848,0,3.934l-9.365,9.365
	C1763.268,420.257,1762.561,420.55,1761.821,420.55"/>
<path fill="#0A040C" stroke="#000000" stroke-width="2" stroke-miterlimit="10" d="M1818.742,415.785h-32.461
	c-1.538,0-2.782-1.244-2.782-2.783c0-1.535,1.244-2.783,2.782-2.783h32.461c1.538,0,2.782,1.248,2.782,2.783
	C1821.524,414.541,1820.28,415.785,1818.742,415.785"/>
<path fill="#0A040C" stroke="#000000" stroke-width="2" stroke-miterlimit="10" d="M1817.167,367.091h-19.479
	c-1.537,0-2.781-1.244-2.781-2.783c0-1.535,1.244-2.781,2.781-2.781h19.479c1.535,0,2.781,1.246,2.781,2.781
	C1819.948,365.847,1818.702,367.091,1817.167,367.091"/>
<path fill="#0A040C" stroke="#000000" stroke-width="2" stroke-miterlimit="10" d="M1817.167,380.447h-19.479
	c-1.537,0-2.781-1.244-2.781-2.783c0-1.535,1.244-2.781,2.781-2.781h19.479c1.535,0,2.781,1.246,2.781,2.781
	C1819.948,379.203,1818.702,380.447,1817.167,380.447"/>
<path fill="#0A040C" stroke="#000000" stroke-width="2" stroke-miterlimit="10" d="M1817.167,393.804h-19.479
	c-1.537,0-2.781-1.248-2.781-2.783c0-1.537,1.244-2.783,2.781-2.783h19.479c1.535,0,2.781,1.246,2.781,2.783
	C1819.948,392.556,1818.702,393.804,1817.167,393.804"/>
<path fill="#0A040C" stroke="#000000" stroke-width="2" stroke-miterlimit="10" d="M1761.821,441.798L1761.821,441.798
	c-0.737,0-1.444-0.293-1.967-0.814l-5.406-5.406c-1.088-1.086-1.088-2.848,0-3.936c1.087-1.086,2.848-1.086,3.935,0l3.438,3.439
	l7.398-7.396c1.085-1.086,2.848-1.086,3.936,0c1.085,1.086,1.085,2.848,0,3.936l-9.365,9.363
	C1763.268,441.505,1762.561,441.798,1761.821,441.798"/>
<path fill="#0A040C" stroke="#000000" stroke-width="2" stroke-miterlimit="10" d="M1818.742,436.931h-32.461
	c-1.538,0-2.782-1.246-2.782-2.783c0-1.535,1.244-2.781,2.782-2.781h32.461c1.538,0,2.782,1.246,2.782,2.781
	C1821.524,435.685,1820.28,436.931,1818.742,436.931"/>
<path d="M1841.194,150.705c-1.859-21.224-19.398-37.703-40.5-37.764h-0.115c-12.536,0-24.587,5.786-32.542,15.551
	c-0.198-0.088-0.396-0.171-0.585-0.246c-0.318-0.133-0.648-0.254-0.932-0.345c-0.525-0.185-1.023-0.339-1.452-0.452
	c-0.263-0.079-0.521-0.146-0.788-0.213l-0.17-0.042c-0.55-0.124-1.113-0.224-1.679-0.308l-0.266-0.043
	c-0.164-0.027-0.329-0.055-0.533-0.08c-0.916-0.102-1.738-0.151-2.578-0.154c-12.342,0-22.425,9.984-22.572,22.299
	c-9.683,5.74-16.134,16.873-16.165,28.085c-0.023,8.38,3.224,16.274,9.146,22.229c5.921,5.955,13.798,9.248,22.177,9.271
	l11.846,0.034c2.313,0,4.199-1.881,4.203-4.19c0.004-1.121-0.43-2.177-1.222-2.974c-0.793-0.799-1.848-1.24-2.969-1.243
	l-11.834-0.035c-12.685-0.035-22.976-10.385-22.939-23.068c0.026-8.852,5.811-18.019,13.745-21.795l2.395-1.126l0.007-2.651
	c0.001-0.162,0.01-0.326,0.019-0.493l0.044-0.757l-0.04-0.73c-0.014-0.107-0.016-0.219-0.016-0.322
	c0.022-7.796,6.383-14.139,14.217-14.139c0.646,0.002,1.311,0.076,1.877,0.148l0.178,0.027c0.102,0.016,0.203,0.032,0.307,0.045
	c0.533,0.104,1.051,0.209,1.494,0.344c0.102,0.033,0.212,0.062,0.345,0.09c0.486,0.157,1.012,0.363,1.646,0.646
	c0.133,0.059,0.264,0.124,0.391,0.188c0.563,0.284,1.019,0.543,1.437,0.819c4.057,2.652,6.47,7.105,6.455,11.911
	c-0.004,1.123,0.432,2.18,1.225,2.977c0.794,0.799,1.848,1.24,2.981,1.243c2.312,0,4.197-1.882,4.202-4.194
	c0.019-6.023-2.367-11.756-6.603-15.994c6.337-7.379,15.977-11.902,25.643-11.902c15.883,0.046,29.485,12.207,31.871,28.069
	c-2.688-0.083-5.241,0.05-7.503,0.393c-1.109,0.163-2.089,0.749-2.759,1.651c-0.672,0.904-0.95,2.017-0.783,3.143
	c0.319,2.062,2.064,3.562,4.16,3.568c0.204,0,0.406-0.018,0.622-0.05c1.426-0.213,3.016-0.321,4.728-0.321
	c3.009,0,5.376,0.34,5.388,0.339c9.802,1.889,17.172,10.964,17.144,21.111c-0.033,11.614-9.51,21.062-21.184,21.062l-9.142-0.026
	c-2.312,0-4.197,1.881-4.204,4.193c-0.006,2.316,1.874,4.207,4.191,4.215l9.216,0.026c0.002,0,0.002,0,0.002,0
	c16.235,0,29.48-13.21,29.527-29.446C1861.982,166.366,1853.333,154.568,1841.194,150.705z M1832.417,206.819L1832.417,206.819
	L1832.417,206.819L1832.417,206.819z"/>
<g>
	<path d="M1556.39,420.101c-2.5,0-4.883-1.006-6.709-2.832c-13.068-13.066-30.445-20.264-48.929-20.264
		c-18.464,0-35.831,7.197-48.9,20.264c-1.82,1.826-4.203,2.832-6.703,2.832c-2.498,0-4.88-1.004-6.708-2.828l-7.356-7.357
		c-1.923-1.926-2.815-4.053-2.815-6.693c0-2.658,0.893-4.793,2.812-6.717c18.199-18.723,42.956-29.057,69.672-29.057
		c26.033,0,50.633,10.191,69.327,28.709c2.012,1.408,3.189,3.98,3.189,7.064c0,2.629-0.904,4.756-2.846,6.695l-7.32,7.348
		C1561.272,419.095,1558.891,420.101,1556.39,420.101z M1500.752,388.431c20.772,0,40.303,8.088,54.992,22.775
		c0.148,0.148,0.378,0.322,0.646,0.322c0.269,0,0.498-0.174,0.645-0.32l7.322-7.35c0.266-0.264,0.316-0.373,0.317-0.375l0,0
		c0,0,0.021-0.072,0.021-0.262c0-0.135-0.011-0.252-0.023-0.348l-0.31-0.311c-17.117-17.115-39.707-26.541-63.61-26.541
		c-24.38,0-46.953,9.41-63.563,26.498c-0.268,0.27-0.318,0.371-0.318,0.371l0,0c0,0-0.028,0.088-0.028,0.33
		c0,0.219,0.025,0.299,0.025,0.301l0,0c0,0,0.053,0.104,0.283,0.336l7.349,7.35c0.145,0.143,0.378,0.32,0.649,0.32
		c0.265,0,0.492-0.174,0.638-0.318C1460.478,396.519,1479.997,388.431,1500.752,388.431z"/>
</g>
<g>
	<path d="M1526.468,449.488c-2.463,0-4.804-0.977-6.606-2.752c-5.456-4.92-12.416-7.74-19.109-7.74
		c-7.311,0-14.058,2.721-18.999,7.662c-1.821,1.824-4.203,2.83-6.704,2.83c-2.51,0-4.891-1.014-6.705-2.852l-7.333-7.332
		c-1.827-1.826-2.834-4.209-2.834-6.709c0.001-2.5,1.008-4.883,2.836-6.709c10.772-10.773,24.515-16.471,39.739-16.471
		c15.213,0,28.965,5.695,39.771,16.469c3.763,3.766,3.763,9.656,0.006,13.418l-7.354,7.354
		C1531.347,448.482,1528.965,449.488,1526.468,449.488z M1500.752,430.423c8.826,0,17.918,3.654,24.942,10.027l0.169,0.162
		c0.455,0.461,0.99,0.238,1.25-0.02l7.352-7.352c0.427-0.428,0.427-0.863-0.001-1.291c-9.158-9.133-20.817-13.963-33.712-13.963
		c-12.9,0-24.546,4.828-33.679,13.963c-0.148,0.148-0.322,0.377-0.322,0.645s0.175,0.498,0.32,0.645l7.354,7.354
		c0.501,0.506,1.007,0.26,1.263,0.004C1482.252,434.035,1491.152,430.423,1500.752,430.423z"/>
</g>
<g>
	<path d="M1500.752,480.962c-8.14,0-14.762-6.637-14.762-14.793c0-8.141,6.622-14.762,14.762-14.762
		c8.157,0,14.795,6.621,14.795,14.762C1515.547,474.326,1508.909,480.962,1500.752,480.962z M1500.752,459.98
		c-3.412,0-6.188,2.777-6.188,6.189c0,3.43,2.776,6.219,6.188,6.219c3.431,0,6.222-2.789,6.222-6.219
		C1506.974,462.757,1504.183,459.98,1500.752,459.98z"/>
</g>
<g>
	<path d="M1263.667,442.611c-5.17,0-9.812-1.498-13.072-4.209c-2.868-2.387-4.607-5.697-5.102-9.561h36.496
		C1280.764,438.351,1272.18,442.611,1263.667,442.611L1263.667,442.611z M1213.621,397.08c-8.344,0-15.109-6.766-15.109-15.113
		c0-8.346,6.766-15.109,15.111-15.109c8.344,0,15.11,6.766,15.11,15.109C1228.724,390.31,1221.964,397.07,1213.621,397.08z
		 M1217.189,453.804h-7.135v-52.318c2.355,0.465,4.78,0.465,7.135,0V453.804z M1198.763,458.562h29.72v4.754h-29.72V458.562z
		 M1192.819,468.072h41.606v6.24h-41.606V468.072z M1163.43,442.611c-5.172,0-9.813-1.496-13.072-4.209
		c-2.869-2.387-4.607-5.697-5.104-9.561h36.496C1180.524,438.351,1171.94,442.611,1163.43,442.611z M1163.43,389.132l15.781,34.953
		h-31.562L1163.43,389.132z M1153.748,379.062c-0.002-1.209,0.961-2.199,2.168-2.23h38.513c-0.37,1.461-0.589,2.955-0.652,4.459
		h-29.394c-0.013,0-0.025-0.064-0.039-0.068c-0.04-0.016-0.078-0.061-0.121-0.072c-0.034-0.014-0.068-0.037-0.105-0.049
		c-0.035-0.012-0.075-0.029-0.113-0.039c-0.039-0.008-0.078-0.02-0.116-0.029s-0.073-0.016-0.11-0.02
		c-0.038-0.006-0.078-0.014-0.117-0.016c-0.038-0.006-0.076-0.008-0.117-0.01c-0.038-0.004-0.072-0.004-0.109-0.004
		c-0.043,0-0.082,0-0.125,0.004c-0.035,0-0.067,0.004-0.103,0.008c-0.044,0.004-0.086,0.008-0.128,0.016
		c-0.035,0.004-0.068,0.01-0.102,0.018c-0.041,0.008-0.084,0.016-0.124,0.027c-0.034,0.008-0.069,0.018-0.104,0.031
		c-0.035,0.01-0.077,0.021-0.115,0.037c-0.041,0.012-0.075,0.08-0.113,0.096c-0.014,0.006-0.029,0.07-0.043,0.07h-6.561
		C1154.709,381.257,1153.746,380.269,1153.748,379.062z M1271.026,376.832c1.231,0,2.23,1,2.23,2.23c0,1.229-0.999,2.229-2.23,2.229
		h-6.256c-0.014,0-0.026-0.064-0.039-0.068c-0.04-0.016-0.079-0.061-0.119-0.072c-0.042-0.014-0.073-0.039-0.111-0.049
		c-0.037-0.012-0.072-0.027-0.108-0.037c-0.037-0.01-0.081-0.021-0.123-0.031c-0.033-0.006-0.067-0.014-0.103-0.02
		c-0.042-0.006-0.084-0.012-0.125-0.016c-0.034-0.004-0.071-0.006-0.107-0.01c-0.041,0-0.079-0.002-0.121-0.002
		c-0.04,0-0.075,0-0.113,0.002c-0.039,0.004-0.075,0.006-0.114,0.01c-0.036,0.002-0.078,0.008-0.117,0.016
		c-0.04,0.004-0.073,0.01-0.109,0.018c-0.037,0.008-0.077,0.016-0.118,0.025c-0.04,0.012-0.075,0.021-0.111,0.031
		c-0.038,0.012-0.073,0.023-0.108,0.035c-0.036,0.012-0.08,0.084-0.119,0.1c-0.013,0.006-0.025,0.068-0.036,0.068h-29.397
		c-0.064-1.504-0.282-2.998-0.652-4.459H1271.026z M1279.596,424.085h-31.562l15.783-34.953L1279.596,424.085z M1284.824,424.167
		l-17.235-38.121h3.438c3.857,0,6.984-3.129,6.984-6.984c0-3.859-3.127-6.984-6.984-6.984h-40.175
		c-3.534-6.182-10.11-9.994-17.23-9.994c-7.117,0-13.691,3.812-17.229,9.994h-40.477c-3.857,0-6.984,3.125-6.984,6.984
		c0,3.855,3.127,6.984,6.984,6.984h3.74l-17.236,38.121c-1.178,0.143-2.064,1.143-2.068,2.328c0,6.41,2.408,11.789,6.962,15.58
		c4.112,3.424,9.836,5.299,16.114,5.299c13.674,0,23.225-8.596,23.225-20.902c-0.004-1.24-0.982-2.262-2.223-2.316l-17.23-38.109
		h26.956c1.265,6.24,5.498,11.268,11.145,13.902v53.855h-8.774c-1.312,0-2.519,1.08-2.519,2.393v7.119h-3.646
		c-0.609-0.021-1.203,0.213-1.64,0.645c-0.435,0.432-0.673,1.023-0.659,1.635v10.965c0,1.312,0.987,2.506,2.299,2.506h46.521
		c1.312,0,2.298-1.193,2.298-2.506v-10.965c0.016-0.611-0.223-1.203-0.657-1.635c-0.437-0.432-1.03-0.666-1.641-0.645h-3.646v-7.119
		c0-1.312-1.202-2.393-2.517-2.393h-8.776v-53.855c5.646-2.635,9.882-7.662,11.145-13.902h26.958l-17.23,38.105
		c-1.246,0.068-2.222,1.098-2.225,2.344c0,6.41,2.407,11.789,6.962,15.58c4.112,3.424,9.836,5.299,16.114,5.299
		c13.673,0,23.225-8.57,23.225-20.875C1286.89,425.312,1286.005,424.312,1284.824,424.167z"/>
	<path d="M1236.883,480.066h-46.521c-1.818,0-3.299-1.572-3.299-3.506v-10.965c-0.019-0.861,0.329-1.723,0.954-2.344
		c0.612-0.605,1.418-0.938,2.271-0.938l2.719,0.002v-6.119c0-1.838,1.61-3.393,3.519-3.393h7.774v-52.229
		c-5.573-2.797-9.511-7.668-10.945-13.529h-24.605l16.368,36.201c1.459,0.355,2.531,1.664,2.535,3.223
		c0,12.898-9.961,21.904-24.225,21.904c-6.52,0-12.469-1.965-16.754-5.531c-4.791-3.986-7.322-9.639-7.322-16.348
		c0.005-1.488,0.986-2.771,2.363-3.197l16.392-36.252h-2.19c-4.402,0-7.984-3.582-7.984-7.984s3.582-7.984,7.984-7.984h39.906
		c3.771-6.18,10.537-9.994,17.799-9.994c7.266,0,14.032,3.814,17.801,9.994h39.604c4.402,0,7.984,3.582,7.984,7.984
		s-3.582,7.984-7.984,7.984h-1.888l16.391,36.252c1.379,0.428,2.359,1.713,2.362,3.199c0,12.883-9.962,21.877-24.225,21.877
		c-6.52,0-12.47-1.965-16.754-5.531c-4.79-3.986-7.322-9.639-7.322-16.348c0.004-1.561,1.075-2.881,2.535-3.246l16.37-36.203
		h-24.607c-1.432,5.861-5.37,10.732-10.945,13.529v52.229h7.776c1.906,0,3.517,1.555,3.517,3.393v6.119h2.646
		c0.002,0,0.004,0,0.005,0c0.925,0,1.729,0.33,2.338,0.932c0.63,0.627,0.978,1.49,0.955,2.373v10.939
		C1240.181,478.494,1238.701,480.066,1236.883,480.066z M1190.356,464.316c-0.391,0-0.703,0.129-0.933,0.355
		c-0.236,0.234-0.369,0.564-0.361,0.902v10.986c0,0.727,0.521,1.506,1.299,1.506h46.521c0.776,0,1.298-0.779,1.298-1.506v-10.965
		c0.009-0.361-0.123-0.689-0.362-0.926c-0.228-0.225-0.543-0.355-0.861-0.355l-4.721,0.002v-8.119c0-0.729-0.723-1.393-1.517-1.393
		h-9.776v-55.492l0.577-0.27c5.557-2.594,9.415-7.402,10.587-13.195l0.162-0.801h29.326l-18.119,40.072l-0.607,0.033
		c-0.715,0.037-1.276,0.629-1.278,1.346c0,6.094,2.283,11.215,6.602,14.809c3.926,3.27,9.421,5.068,15.475,5.068
		c13.086,0,22.225-8.172,22.225-19.875c-0.001-0.68-0.513-1.258-1.188-1.34l-0.559-0.068l-18.105-40.045h4.987
		c3.3,0,5.984-2.686,5.984-5.984c0-3.301-2.685-5.984-5.984-5.984h-40.755l-0.288-0.504c-3.348-5.854-9.616-9.49-16.362-9.49
		c-6.741,0-13.01,3.637-16.359,9.49l-0.289,0.504h-41.057c-3.3,0-5.984,2.684-5.984,5.984c0,3.299,2.685,5.984,5.984,5.984h5.29
		l-18.106,40.045l-0.559,0.068c-0.676,0.082-1.188,0.658-1.189,1.34c0,6.092,2.283,11.213,6.602,14.807
		c3.926,3.27,9.422,5.068,15.475,5.068c13.086,0,22.225-8.184,22.225-19.902c-0.002-0.705-0.559-1.285-1.268-1.318l-0.613-0.027
		l-18.122-40.08h29.323l0.162,0.801c1.175,5.793,5.033,10.604,10.588,13.195l0.577,0.27v55.492h-9.774
		c-0.795,0-1.519,0.664-1.519,1.393v8.119h-4.646C1190.359,464.316,1190.357,464.316,1190.356,464.316z M1235.426,475.312h-43.606
		v-8.24h43.606V475.312z M1193.819,473.312h39.606v-4.24h-39.606V473.312z M1229.482,464.316h-31.72v-6.754h31.72V464.316z
		 M1199.763,462.316h27.72v-2.754h-27.72V462.316z M1218.189,454.804h-9.135v-54.533l1.193,0.234c2.217,0.438,4.531,0.438,6.748,0
		l1.193-0.234V454.804z M1211.055,452.804h5.135v-50.141c-1.701,0.227-3.432,0.227-5.135,0V452.804z M1263.667,443.611
		c-5.4,0-10.271-1.578-13.712-4.441c-3.037-2.525-4.923-6.053-5.454-10.201l-0.144-1.127h38.769l-0.145,1.129
		C1282.11,435.724,1276.53,443.611,1263.667,443.611z M1246.67,429.841c0.637,3.148,2.2,5.824,4.564,7.791
		c3.083,2.564,7.499,3.979,12.433,3.979c6.935,0,15.387-3.109,17.145-11.77H1246.67z M1163.43,443.611
		c-5.403,0-10.273-1.576-13.712-4.439c-3.036-2.525-4.923-6.053-5.456-10.201l-0.145-1.129h38.771l-0.146,1.129
		C1181.871,435.724,1176.291,443.611,1163.43,443.611z M1146.432,429.841c0.639,3.15,2.202,5.826,4.565,7.793
		c3.081,2.564,7.495,3.977,12.433,3.977c6.934,0,15.385-3.109,17.143-11.77H1146.432z M1281.145,425.085h-34.659l17.332-38.383
		L1281.145,425.085z M1249.583,423.085h28.464l-14.229-31.521L1249.583,423.085z M1180.76,425.085h-34.66l17.33-38.383
		L1180.76,425.085z M1149.197,423.085h28.465l-14.232-31.521L1149.197,423.085z M1213.623,398.08
		c-8.885,0-16.111-7.229-16.111-16.113c0-8.883,7.228-16.109,16.111-16.109s16.11,7.227,16.11,16.109
		C1229.724,390.841,1222.496,398.068,1213.623,398.08z M1213.623,367.857c-7.781,0-14.111,6.33-14.111,14.109
		c0,7.781,6.33,14.113,14.109,14.113c7.772-0.01,14.104-6.342,14.112-14.113C1227.733,374.187,1221.404,367.857,1213.623,367.857z
		 M1271.026,382.291h-6.938l-0.118-0.293l-0.108-0.012l-0.187,0.008l-0.099,0.26l-0.71,0.037h-30.355l-0.041-0.957
		c-0.062-1.436-0.271-2.867-0.623-4.256l-0.315-1.246h39.495c1.781,0,3.23,1.449,3.23,3.23
		C1274.257,380.841,1272.808,382.291,1271.026,382.291z M1265.137,380.291h5.89c0.679,0,1.23-0.551,1.23-1.229
		s-0.552-1.23-1.23-1.23h-36.962c0.158,0.812,0.272,1.633,0.343,2.459h28.045l0.701-0.238c0.078-0.016,0.131-0.025,0.194-0.031
		c0.012-0.006,0.104-0.018,0.185-0.021l0.294-0.014l0.33,0.02c0.027,0,0.1,0.01,0.171,0.021L1265.137,380.291z M1194.734,382.291
		h-31.033l-0.117-0.291l-0.15-0.016v-1l-0.027,0.66l0.012,0.006l-0.014,0.029l-0.012,0.305l-0.037-0.193l-0.084,0.193l0.002,0.01
		l-0.007,0.002l-0.111,0.254l-0.679,0.041h-6.561c-1.791-0.049-3.171-1.467-3.168-3.23c-0.003-1.764,1.377-3.182,3.143-3.229h39.823
		l-0.315,1.246c-0.353,1.389-0.562,2.82-0.623,4.256L1194.734,382.291z M1155.916,377.832c-0.645,0.018-1.169,0.557-1.168,1.229
		c-0.001,0.674,0.523,1.213,1.195,1.23h6.105l0.285-0.121c0.007-0.004,0.082-0.027,0.143-0.045c0.004-0.004,0.08-0.025,0.156-0.043
		c0.011-0.006,0.086-0.021,0.161-0.037c0.036-0.006,0.089-0.016,0.146-0.023c0.051-0.01,0.123-0.018,0.199-0.023
		c0.033-0.004,0.1-0.01,0.17-0.01c-0.034-0.004,0.184-0.01,0.336,0.006c0.011,0,0.094,0.004,0.166,0.016
		c-0.033-0.008,0.037,0.002,0.104,0.012c0.046,0.006,0.119,0.018,0.198,0.037l0.635,0.232h28.091
		c0.07-0.824,0.185-1.646,0.343-2.459H1155.916z"/>
</g>
<path fill="#0A040C" stroke="#000000" stroke-width="2" stroke-miterlimit="10" d="M1548.612,248.598h-96.994
	c-5.457,0-9.898-4.44-9.898-9.897v-61.255c0-1.821,1.479-3.298,3.301-3.298c1.82,0,3.299,1.477,3.299,3.298v61.255
	c0,1.818,1.48,3.299,3.299,3.299h96.994c1.82,0,3.301-1.48,3.301-3.299V115.972c0-1.82-1.48-3.3-3.301-3.3h-96.994
	c-1.818,0-3.299,1.479-3.299,3.3v33.65c0,1.822-1.479,3.299-3.299,3.299c-1.822,0-3.301-1.477-3.301-3.299v-33.65
	c0-5.459,4.441-9.898,9.898-9.898h96.994c5.459,0,9.897,4.439,9.897,9.898v122.729
	C1558.51,244.158,1554.071,248.598,1548.612,248.598"/>
<path fill="#0A040C" stroke="#000000" stroke-width="2" stroke-miterlimit="10" d="M1445.021,167.697
	c-0.868,0-1.72-0.354-2.334-0.967c-0.611-0.617-0.967-1.467-0.967-2.336c0-0.865,0.353-1.717,0.967-2.333
	c0.614-0.614,1.466-0.963,2.334-0.963c0.866,0,1.718,0.349,2.332,0.963c0.614,0.616,0.967,1.466,0.967,2.333
	c0,0.869-0.353,1.721-0.967,2.336C1446.738,167.343,1445.887,167.697,1445.021,167.697"/>
<path fill="#0A040C" stroke="#000000" stroke-width="2" stroke-miterlimit="10" d="M1495.166,168.759h-31.671
	c-1.82,0-3.299-1.479-3.299-3.301v-31.672c0-1.821,1.479-3.299,3.299-3.299h31.671c1.823,0,3.301,1.478,3.301,3.299v31.672
	C1498.467,167.281,1496.989,168.759,1495.166,168.759 M1466.794,162.16h25.073v-25.073h-25.073V162.16z"/>
<path fill="#0A040C" stroke="#000000" stroke-width="2" stroke-miterlimit="10" d="M1471.114,200.472L1471.114,200.472
	c-0.874,0-1.712-0.348-2.332-0.967l-6.41-6.41c-1.289-1.288-1.289-3.377,0-4.666c1.289-1.288,3.377-1.288,4.666,0l4.076,4.079
	l8.772-8.771c1.287-1.289,3.377-1.289,4.666,0c1.286,1.287,1.286,3.377,0,4.665l-11.104,11.103
	C1472.829,200.125,1471.99,200.472,1471.114,200.472"/>
<path fill="#0A040C" stroke="#000000" stroke-width="2" stroke-miterlimit="10" d="M1538.605,194.822h-38.489
	c-1.823,0-3.299-1.477-3.299-3.299s1.476-3.301,3.299-3.301h38.489c1.823,0,3.299,1.479,3.299,3.301
	S1540.429,194.822,1538.605,194.822"/>
<path fill="#0A040C" stroke="#000000" stroke-width="2" stroke-miterlimit="10" d="M1536.737,137.086h-23.095
	c-1.823,0-3.299-1.477-3.299-3.3c0-1.821,1.476-3.299,3.299-3.299h23.095c1.82,0,3.299,1.478,3.299,3.299
	C1540.036,135.61,1538.558,137.086,1536.737,137.086"/>
<path fill="#0A040C" stroke="#000000" stroke-width="2" stroke-miterlimit="10" d="M1536.737,152.921h-23.095
	c-1.823,0-3.299-1.477-3.299-3.299c0-1.82,1.476-3.299,3.299-3.299h23.095c1.82,0,3.299,1.479,3.299,3.299
	C1540.036,151.445,1538.558,152.921,1536.737,152.921"/>
<path fill="#0A040C" stroke="#000000" stroke-width="2" stroke-miterlimit="10" d="M1536.737,168.759h-23.095
	c-1.823,0-3.299-1.479-3.299-3.301c0-1.821,1.476-3.299,3.299-3.299h23.095c1.82,0,3.299,1.478,3.299,3.299
	C1540.036,167.281,1538.558,168.759,1536.737,168.759"/>
<path fill="#0A040C" stroke="#000000" stroke-width="2" stroke-miterlimit="10" d="M1471.114,225.667L1471.114,225.667
	c-0.874,0-1.712-0.348-2.332-0.967l-6.41-6.411c-1.289-1.288-1.289-3.376,0-4.665s3.377-1.289,4.666,0l4.076,4.077l8.772-8.771
	c1.287-1.287,3.377-1.287,4.666,0c1.286,1.289,1.286,3.379,0,4.666l-11.104,11.104
	C1472.829,225.32,1471.99,225.667,1471.114,225.667"/>
<path fill="#0A040C" stroke="#000000" stroke-width="2" stroke-miterlimit="10" d="M1538.605,219.896h-38.489
	c-1.823,0-3.299-1.479-3.299-3.3s1.476-3.3,3.299-3.3h38.489c1.823,0,3.299,1.479,3.299,3.3S1540.429,219.896,1538.605,219.896"/>
<path fill="#0F0A0F" d="M1808.228,226.632c-0.854-0.754-1.963-1.169-3.124-1.169c-1.38,0-2.678,0.576-3.561,1.58l-3.318,3.759
	c0.034-0.229,0.07-0.458,0.07-0.696V217.22c0-2.576-2.088-4.664-4.665-4.664h-0.308c-2.576,0-4.664,2.088-4.664,4.664v12.886
	c0,0.238,0.036,0.468,0.07,0.696l-3.318-3.759c-0.883-1.004-2.181-1.58-3.561-1.58c-1.161,0-2.271,0.415-3.124,1.169
	c-0.947,0.837-1.513,1.992-1.591,3.254c-0.077,1.263,0.342,2.48,1.18,3.43l11.235,12.723c0.863,0.966,2.168,1.519,3.582,1.519
	c0.117,0,0.229-0.024,0.345-0.032c0.115,0.008,0.228,0.032,0.345,0.032c1.414,0,2.719-0.553,3.582-1.519l11.235-12.723
	c0.838-0.949,1.257-2.167,1.18-3.43C1809.74,228.625,1809.175,227.469,1808.228,226.632z"/>
<path fill="#0F0A0F" d="M1778.726,191.647c0.854,0.754,1.963,1.169,3.124,1.169c1.38,0,2.678-0.576,3.561-1.58l3.318-3.758
	c-0.034,0.229-0.07,0.457-0.07,0.695v12.886c0,2.576,2.088,4.664,4.665,4.664h0.308c2.576,0,4.664-2.088,4.664-4.664v-12.886
	c0-0.238-0.036-0.467-0.07-0.695l3.318,3.758c0.883,1.004,2.181,1.58,3.561,1.58c1.161,0,2.271-0.415,3.124-1.169
	c0.947-0.837,1.513-1.992,1.591-3.254c0.077-1.263-0.342-2.48-1.18-3.43l-11.235-12.723c-0.863-0.966-2.168-1.519-3.582-1.519
	c-0.117,0-0.229,0.024-0.345,0.032c-0.115-0.008-0.228-0.032-0.345-0.032c-1.414,0-2.719,0.553-3.582,1.519l-11.235,12.723
	c-0.838,0.949-1.257,2.167-1.18,3.43C1777.213,189.655,1777.778,190.81,1778.726,191.647z"/>
</svg>
