<?xml version="1.0" encoding="utf-8"?>
<!-- Generator: Adobe Illustrator 16.0.0, SVG Export Plug-In . SVG Version: 6.00 Build 0)  -->
<!DOCTYPE svg PUBLIC "-//W3C//DTD SVG 1.1//EN" "http://www.w3.org/Graphics/SVG/1.1/DTD/svg11.dtd">
<svg version="1.1" id="Layer_1" xmlns="http://www.w3.org/2000/svg" xmlns:xlink="http://www.w3.org/1999/xlink" x="0px" y="0px"
	 width="540.808px" height="515.709px" viewBox="0 0 540.808 515.709" enable-background="new 0 0 540.808 515.709"
	 xml:space="preserve">
<circle fill="#3AD9CE" cx="271.535" cy="257.535" r="246.535"/>
<path fill="#0A040C" stroke="#000000" stroke-width="2" stroke-miterlimit="10" d="M1827.182,461.138h-81.804
	c-4.602,0-8.348-3.744-8.348-8.348v-51.66c0-1.537,1.246-2.781,2.784-2.781c1.535,0,2.782,1.244,2.782,2.781v51.66
	c0,1.535,1.248,2.783,2.781,2.783h81.804c1.535,0,2.784-1.248,2.784-2.783V349.285c0-1.535-1.249-2.783-2.784-2.783h-81.804
	c-1.533,0-2.781,1.248-2.781,2.783v28.379c0,1.539-1.247,2.783-2.782,2.783c-1.538,0-2.784-1.244-2.784-2.783v-28.379
	c0-4.604,3.746-8.348,8.348-8.348h81.804c4.604,0,8.348,3.744,8.348,8.348v103.506
	C1835.529,457.394,1831.785,461.138,1827.182,461.138"/>
<path fill="#0A040C" stroke="#000000" stroke-width="2" stroke-miterlimit="10" d="M1739.814,392.908
	c-0.732,0-1.45-0.297-1.969-0.816c-0.516-0.52-0.815-1.234-0.815-1.969c0-0.73,0.297-1.447,0.815-1.967s1.236-0.812,1.969-0.812
	c0.73,0,1.448,0.293,1.966,0.812c0.519,0.52,0.816,1.234,0.816,1.967c0,0.734-0.298,1.451-0.816,1.969
	C1741.263,392.611,1740.545,392.908,1739.814,392.908"/>
<path fill="#0A040C" stroke="#000000" stroke-width="2" stroke-miterlimit="10" d="M1750.959,472.285
	c-0.73,0-1.448-0.295-1.967-0.814c-0.518-0.518-0.815-1.232-0.815-1.967c0-0.732,0.298-1.449,0.815-1.969
	c0.519-0.518,1.236-0.814,1.967-0.814c0.734,0,1.45,0.297,1.969,0.814c0.516,0.52,0.815,1.236,0.815,1.969
	c0,0.734-0.298,1.449-0.815,1.967C1752.409,471.99,1751.693,472.285,1750.959,472.285"/>
<path fill="#0A040C" stroke="#000000" stroke-width="2" stroke-miterlimit="10" d="M1838.33,472.287h-76.239
	c-1.537,0-2.782-1.246-2.782-2.783c0-1.535,1.245-2.781,2.782-2.781h76.239c1.533,0,2.782-1.25,2.782-2.783V354.867
	c0-1.537,1.246-2.783,2.782-2.783c1.537,0,2.781,1.246,2.781,2.783v109.072C1846.676,468.542,1842.933,472.287,1838.33,472.287"/>
<path fill="#0A040C" stroke="#000000" stroke-width="2" stroke-miterlimit="10" d="M1849.478,483.398h-87.369
	c-1.536,0-2.782-1.244-2.782-2.783c0-1.535,1.246-2.781,2.782-2.781h87.369c1.535,0,2.781-1.248,2.781-2.783V365.978
	c0-1.535,1.247-2.781,2.782-2.781c1.537,0,2.784,1.246,2.784,2.781V475.05C1857.825,479.654,1854.079,483.398,1849.478,483.398"/>
<path fill="#0A040C" stroke="#000000" stroke-width="2" stroke-miterlimit="10" d="M1782.105,393.804h-26.71
	c-1.535,0-2.782-1.248-2.782-2.783v-26.713c0-1.535,1.247-2.781,2.782-2.781h26.71c1.538,0,2.784,1.246,2.784,2.781v26.713
	C1784.89,392.556,1783.644,393.804,1782.105,393.804 M1758.177,388.238h21.147v-21.146h-21.147V388.238z"/>
<path fill="#0A040C" stroke="#000000" stroke-width="2" stroke-miterlimit="10" d="M1761.821,420.55L1761.821,420.55
	c-0.737,0-1.444-0.293-1.967-0.814l-5.406-5.408c-1.088-1.086-1.088-2.848,0-3.934c1.087-1.088,2.848-1.088,3.935,0l3.438,3.439
	l7.398-7.396c1.085-1.088,2.848-1.088,3.936,0c1.085,1.086,1.085,2.848,0,3.934l-9.365,9.365
	C1763.268,420.257,1762.561,420.55,1761.821,420.55"/>
<path fill="#0A040C" stroke="#000000" stroke-width="2" stroke-miterlimit="10" d="M1818.742,415.785h-32.461
	c-1.538,0-2.782-1.244-2.782-2.783c0-1.535,1.244-2.783,2.782-2.783h32.461c1.538,0,2.782,1.248,2.782,2.783
	C1821.524,414.541,1820.28,415.785,1818.742,415.785"/>
<path fill="#0A040C" stroke="#000000" stroke-width="2" stroke-miterlimit="10" d="M1817.167,367.091h-19.479
	c-1.537,0-2.781-1.244-2.781-2.783c0-1.535,1.244-2.781,2.781-2.781h19.479c1.535,0,2.781,1.246,2.781,2.781
	C1819.948,365.847,1818.702,367.091,1817.167,367.091"/>
<path fill="#0A040C" stroke="#000000" stroke-width="2" stroke-miterlimit="10" d="M1817.167,380.447h-19.479
	c-1.537,0-2.781-1.244-2.781-2.783c0-1.535,1.244-2.781,2.781-2.781h19.479c1.535,0,2.781,1.246,2.781,2.781
	C1819.948,379.203,1818.702,380.447,1817.167,380.447"/>
<path fill="#0A040C" stroke="#000000" stroke-width="2" stroke-miterlimit="10" d="M1817.167,393.804h-19.479
	c-1.537,0-2.781-1.248-2.781-2.783c0-1.537,1.244-2.783,2.781-2.783h19.479c1.535,0,2.781,1.246,2.781,2.783
	C1819.948,392.556,1818.702,393.804,1817.167,393.804"/>
<path fill="#0A040C" stroke="#000000" stroke-width="2" stroke-miterlimit="10" d="M1761.821,441.798L1761.821,441.798
	c-0.737,0-1.444-0.293-1.967-0.814l-5.406-5.406c-1.088-1.086-1.088-2.848,0-3.936c1.087-1.086,2.848-1.086,3.935,0l3.438,3.439
	l7.398-7.396c1.085-1.086,2.848-1.086,3.936,0c1.085,1.086,1.085,2.848,0,3.936l-9.365,9.363
	C1763.268,441.505,1762.561,441.798,1761.821,441.798"/>
<path fill="#0A040C" stroke="#000000" stroke-width="2" stroke-miterlimit="10" d="M1818.742,436.931h-32.461
	c-1.538,0-2.782-1.246-2.782-2.783c0-1.535,1.244-2.781,2.782-2.781h32.461c1.538,0,2.782,1.246,2.782,2.781
	C1821.524,435.685,1820.28,436.931,1818.742,436.931"/>
<g>
	<path d="M1556.39,420.101c-2.5,0-4.883-1.006-6.709-2.832c-13.068-13.066-30.445-20.264-48.929-20.264
		c-18.464,0-35.831,7.197-48.9,20.264c-1.82,1.826-4.203,2.832-6.703,2.832c-2.498,0-4.88-1.004-6.708-2.828l-7.356-7.357
		c-1.923-1.926-2.815-4.053-2.815-6.693c0-2.658,0.893-4.793,2.812-6.717c18.199-18.723,42.956-29.057,69.672-29.057
		c26.033,0,50.633,10.191,69.327,28.709c2.012,1.408,3.189,3.98,3.189,7.064c0,2.629-0.904,4.756-2.846,6.695l-7.32,7.348
		C1561.272,419.095,1558.891,420.101,1556.39,420.101z M1500.752,388.431c20.772,0,40.303,8.088,54.992,22.775
		c0.148,0.148,0.378,0.322,0.646,0.322c0.269,0,0.498-0.174,0.645-0.32l7.322-7.35c0.266-0.264,0.316-0.373,0.317-0.375l0,0
		c0,0,0.021-0.072,0.021-0.262c0-0.135-0.011-0.252-0.023-0.348l-0.31-0.311c-17.117-17.115-39.707-26.541-63.61-26.541
		c-24.38,0-46.953,9.41-63.563,26.498c-0.268,0.27-0.318,0.371-0.318,0.371l0,0c0,0-0.028,0.088-0.028,0.33
		c0,0.219,0.025,0.299,0.025,0.301l0,0c0,0,0.053,0.104,0.283,0.336l7.349,7.35c0.145,0.143,0.378,0.32,0.649,0.32
		c0.265,0,0.492-0.174,0.638-0.318C1460.478,396.519,1479.997,388.431,1500.752,388.431z"/>
</g>
<g>
	<path d="M1526.468,449.488c-2.463,0-4.804-0.977-6.606-2.752c-5.456-4.92-12.416-7.74-19.109-7.74
		c-7.311,0-14.058,2.721-18.999,7.662c-1.821,1.824-4.203,2.83-6.704,2.83c-2.51,0-4.891-1.014-6.705-2.852l-7.333-7.332
		c-1.827-1.826-2.834-4.209-2.834-6.709c0.001-2.5,1.008-4.883,2.836-6.709c10.772-10.773,24.515-16.471,39.739-16.471
		c15.213,0,28.965,5.695,39.771,16.469c3.763,3.766,3.763,9.656,0.006,13.418l-7.354,7.354
		C1531.347,448.482,1528.965,449.488,1526.468,449.488z M1500.752,430.423c8.826,0,17.918,3.654,24.942,10.027l0.169,0.162
		c0.455,0.461,0.99,0.238,1.25-0.02l7.352-7.352c0.427-0.428,0.427-0.863-0.001-1.291c-9.158-9.133-20.817-13.963-33.712-13.963
		c-12.9,0-24.546,4.828-33.679,13.963c-0.148,0.148-0.322,0.377-0.322,0.645s0.175,0.498,0.32,0.645l7.354,7.354
		c0.501,0.506,1.007,0.26,1.263,0.004C1482.252,434.035,1491.152,430.423,1500.752,430.423z"/>
</g>
<g>
	<path d="M1500.752,480.962c-8.14,0-14.762-6.637-14.762-14.793c0-8.141,6.622-14.762,14.762-14.762
		c8.157,0,14.795,6.621,14.795,14.762C1515.547,474.326,1508.909,480.962,1500.752,480.962z M1500.752,459.98
		c-3.412,0-6.188,2.777-6.188,6.189c0,3.43,2.776,6.219,6.188,6.219c3.431,0,6.222-2.789,6.222-6.219
		C1506.974,462.757,1504.183,459.98,1500.752,459.98z"/>
</g>
<path fill="#FFFFFF" d="M432.147,266.865l-37.067-81.979h4.27c9.956,0,18.056-8.101,18.056-18.056c0-9.956-8.1-18.055-18.056-18.055
	h-89.561c-8.523-13.975-23.825-22.601-40.255-22.601c-16.422,0-31.722,8.626-40.251,22.601H139.04
	c-9.956,0-18.057,8.1-18.057,18.055c0,9.955,8.101,18.056,18.057,18.056h4.953l-37.068,81.979c-3.113,0.963-5.333,3.865-5.344,7.23
	c0,15.173,5.724,27.954,16.559,36.97c9.689,8.064,23.144,12.508,37.887,12.508c32.256,0,54.782-20.365,54.782-49.535
	c-0.009-3.523-2.433-6.482-5.733-7.287l-37.015-81.865h55.642c3.244,13.254,12.149,24.27,24.753,30.594v118.11h-17.582
	c-4.315,0-7.957,3.516-7.957,7.673V355.1l-6.148-0.004c-1.93,0-3.752,0.751-5.137,2.119c-1.413,1.405-2.2,3.353-2.157,5.3v24.797
	c0,4.373,3.348,7.928,7.459,7.928h105.203c4.113,0,7.459-3.555,7.459-7.928v-24.739c0.051-1.996-0.735-3.948-2.16-5.365
	c-1.378-1.36-3.196-2.107-5.286-2.107c-0.003,0-0.007,0-0.013,0h-5.983v-13.837c0-4.157-3.642-7.673-7.953-7.673h-17.586V215.48
	c12.608-6.324,21.515-17.34,24.752-30.594h55.647l-37.019,81.869c-3.302,0.827-5.725,3.812-5.733,7.34
	c0,15.173,5.727,27.954,16.558,36.97c9.688,8.064,23.145,12.508,37.888,12.508c32.253,0,54.781-20.34,54.781-49.472
	C437.481,270.739,435.265,267.833,432.147,266.865z M382.707,308.278c-11.156,0-21.144-3.198-28.115-8.997
	c-5.346-4.447-8.882-10.498-10.321-17.619h77.208C417.503,301.246,398.389,308.278,382.707,308.278z M350.857,266.384l32.189-71.283
	l32.179,71.283H350.857z M399.35,169.608h-13.318l-1.83-0.596c-0.162-0.027-0.326-0.049-0.388-0.049l-0.747-0.044l-0.664,0.032
	c-0.182,0.008-0.391,0.034-0.417,0.048c-0.145,0.013-0.263,0.035-0.439,0.071l-1.586,0.539h-63.421
	c-0.159-1.869-0.417-3.723-0.775-5.561h83.586c1.535,0,2.782,1.25,2.782,2.783S400.885,169.608,399.35,169.608z M224.753,379.966
	v-9.589h89.567v9.589H224.753z M269.534,205.312c-17.592,0-31.907-14.318-31.907-31.915c0-17.592,14.315-31.907,31.911-31.907
	c17.596,0,31.909,14.315,31.909,31.907C301.428,190.971,287.11,205.292,269.534,205.312z M275.342,220.202V333.59H263.73V220.202
	C267.581,220.714,271.495,220.714,275.342,220.202z M238.194,355.1v-6.228h62.685v6.228H238.194z M123.845,266.384l32.186-71.283
	l32.186,71.283H123.845z M156.03,308.278c-11.165,0-21.147-3.193-28.114-8.993c-5.345-4.447-8.88-10.498-10.325-17.623h77.205
	C190.821,301.246,171.71,308.278,156.03,308.278z M155.757,168.924c-0.159,0-0.31,0.013-0.384,0.021
	c-0.172,0.013-0.336,0.03-0.451,0.053c-0.128,0.017-0.247,0.04-0.33,0.053c-0.169,0.035-0.339,0.071-0.364,0.084
	c-0.172,0.039-0.344,0.088-0.353,0.096c-0.136,0.04-0.307,0.093-0.322,0.103l-0.646,0.273h-13.807
	c-1.519-0.04-2.705-1.259-2.703-2.782c-0.002-1.52,1.184-2.739,2.642-2.779h84.27c-0.357,1.838-0.616,3.698-0.775,5.561H159.01
	l-1.437-0.525c-0.179-0.044-0.344-0.071-0.448-0.084c-0.149-0.023-0.308-0.044-0.233-0.027c-0.164-0.026-0.351-0.035-0.376-0.035
	C156.172,168.901,155.68,168.915,155.757,168.924z"/>
</svg>
