<?xml version="1.0" encoding="utf-8"?>
<!-- Generator: Adobe Illustrator 16.0.0, SVG Export Plug-In . SVG Version: 6.00 Build 0)  -->
<!DOCTYPE svg PUBLIC "-//W3C//DTD SVG 1.1//EN" "http://www.w3.org/Graphics/SVG/1.1/DTD/svg11.dtd">
<svg version="1.1" id="Layer_1" xmlns="http://www.w3.org/2000/svg" xmlns:xlink="http://www.w3.org/1999/xlink" x="0px" y="0px"
	 width="540.808px" height="515.709px" viewBox="0 0 540.808 515.709" enable-background="new 0 0 540.808 515.709"
	 xml:space="preserve">
<circle fill="#3AD9CE" cx="271.535" cy="257.535" r="246.535"/>
<path fill="#0A040C" stroke="#000000" stroke-width="2" stroke-miterlimit="10" d="M1827.182,461.138h-81.804
	c-4.602,0-8.348-3.744-8.348-8.348v-51.66c0-1.537,1.246-2.781,2.784-2.781c1.535,0,2.782,1.244,2.782,2.781v51.66
	c0,1.535,1.248,2.783,2.781,2.783h81.804c1.535,0,2.784-1.248,2.784-2.783V349.285c0-1.535-1.249-2.783-2.784-2.783h-81.804
	c-1.533,0-2.781,1.248-2.781,2.783v28.379c0,1.539-1.247,2.783-2.782,2.783c-1.538,0-2.784-1.244-2.784-2.783v-28.379
	c0-4.604,3.746-8.348,8.348-8.348h81.804c4.604,0,8.348,3.744,8.348,8.348v103.506
	C1835.529,457.394,1831.785,461.138,1827.182,461.138"/>
<path fill="#0A040C" stroke="#000000" stroke-width="2" stroke-miterlimit="10" d="M1739.814,392.908
	c-0.732,0-1.45-0.297-1.969-0.816c-0.516-0.52-0.815-1.234-0.815-1.969c0-0.73,0.297-1.447,0.815-1.967s1.236-0.812,1.969-0.812
	c0.73,0,1.448,0.293,1.966,0.812c0.519,0.52,0.816,1.234,0.816,1.967c0,0.734-0.298,1.451-0.816,1.969
	C1741.263,392.611,1740.545,392.908,1739.814,392.908"/>
<path fill="#0A040C" stroke="#000000" stroke-width="2" stroke-miterlimit="10" d="M1750.959,472.285
	c-0.73,0-1.448-0.295-1.967-0.814c-0.518-0.518-0.815-1.232-0.815-1.967c0-0.732,0.298-1.449,0.815-1.969
	c0.519-0.518,1.236-0.814,1.967-0.814c0.734,0,1.45,0.297,1.969,0.814c0.516,0.52,0.815,1.236,0.815,1.969
	c0,0.734-0.298,1.449-0.815,1.967C1752.409,471.99,1751.693,472.285,1750.959,472.285"/>
<path fill="#0A040C" stroke="#000000" stroke-width="2" stroke-miterlimit="10" d="M1838.33,472.287h-76.239
	c-1.537,0-2.782-1.246-2.782-2.783c0-1.535,1.245-2.781,2.782-2.781h76.239c1.533,0,2.782-1.25,2.782-2.783V354.867
	c0-1.537,1.246-2.783,2.782-2.783c1.537,0,2.781,1.246,2.781,2.783v109.072C1846.676,468.542,1842.933,472.287,1838.33,472.287"/>
<path fill="#0A040C" stroke="#000000" stroke-width="2" stroke-miterlimit="10" d="M1849.478,483.398h-87.369
	c-1.536,0-2.782-1.244-2.782-2.783c0-1.535,1.246-2.781,2.782-2.781h87.369c1.535,0,2.781-1.248,2.781-2.783V365.978
	c0-1.535,1.247-2.781,2.782-2.781c1.537,0,2.784,1.246,2.784,2.781V475.05C1857.825,479.654,1854.079,483.398,1849.478,483.398"/>
<path fill="#0A040C" stroke="#000000" stroke-width="2" stroke-miterlimit="10" d="M1782.105,393.804h-26.71
	c-1.535,0-2.782-1.248-2.782-2.783v-26.713c0-1.535,1.247-2.781,2.782-2.781h26.71c1.538,0,2.784,1.246,2.784,2.781v26.713
	C1784.89,392.556,1783.644,393.804,1782.105,393.804 M1758.177,388.238h21.147v-21.146h-21.147V388.238z"/>
<path fill="#0A040C" stroke="#000000" stroke-width="2" stroke-miterlimit="10" d="M1761.821,420.55L1761.821,420.55
	c-0.737,0-1.444-0.293-1.967-0.814l-5.406-5.408c-1.088-1.086-1.088-2.848,0-3.934c1.087-1.088,2.848-1.088,3.935,0l3.438,3.439
	l7.398-7.396c1.085-1.088,2.848-1.088,3.936,0c1.085,1.086,1.085,2.848,0,3.934l-9.365,9.365
	C1763.268,420.257,1762.561,420.55,1761.821,420.55"/>
<path fill="#0A040C" stroke="#000000" stroke-width="2" stroke-miterlimit="10" d="M1818.742,415.785h-32.461
	c-1.538,0-2.782-1.244-2.782-2.783c0-1.535,1.244-2.783,2.782-2.783h32.461c1.538,0,2.782,1.248,2.782,2.783
	C1821.524,414.541,1820.28,415.785,1818.742,415.785"/>
<path fill="#0A040C" stroke="#000000" stroke-width="2" stroke-miterlimit="10" d="M1817.167,367.091h-19.479
	c-1.537,0-2.781-1.244-2.781-2.783c0-1.535,1.244-2.781,2.781-2.781h19.479c1.535,0,2.781,1.246,2.781,2.781
	C1819.948,365.847,1818.702,367.091,1817.167,367.091"/>
<path fill="#0A040C" stroke="#000000" stroke-width="2" stroke-miterlimit="10" d="M1817.167,380.447h-19.479
	c-1.537,0-2.781-1.244-2.781-2.783c0-1.535,1.244-2.781,2.781-2.781h19.479c1.535,0,2.781,1.246,2.781,2.781
	C1819.948,379.203,1818.702,380.447,1817.167,380.447"/>
<path fill="#0A040C" stroke="#000000" stroke-width="2" stroke-miterlimit="10" d="M1817.167,393.804h-19.479
	c-1.537,0-2.781-1.248-2.781-2.783c0-1.537,1.244-2.783,2.781-2.783h19.479c1.535,0,2.781,1.246,2.781,2.783
	C1819.948,392.556,1818.702,393.804,1817.167,393.804"/>
<path fill="#0A040C" stroke="#000000" stroke-width="2" stroke-miterlimit="10" d="M1761.821,441.798L1761.821,441.798
	c-0.737,0-1.444-0.293-1.967-0.814l-5.406-5.406c-1.088-1.086-1.088-2.848,0-3.936c1.087-1.086,2.848-1.086,3.935,0l3.438,3.439
	l7.398-7.396c1.085-1.086,2.848-1.086,3.936,0c1.085,1.086,1.085,2.848,0,3.936l-9.365,9.363
	C1763.268,441.505,1762.561,441.798,1761.821,441.798"/>
<path fill="#0A040C" stroke="#000000" stroke-width="2" stroke-miterlimit="10" d="M1818.742,436.931h-32.461
	c-1.538,0-2.782-1.246-2.782-2.783c0-1.535,1.244-2.781,2.782-2.781h32.461c1.538,0,2.782,1.246,2.782,2.781
	C1821.524,435.685,1820.28,436.931,1818.742,436.931"/>
<g>
	<path fill="#FFFFFF" d="M396.02,252.72c-5.705,0-11.146-2.296-15.313-6.464c-29.827-29.823-69.488-46.25-111.675-46.25
		c-42.141,0-81.78,16.427-111.609,46.25c-4.155,4.168-9.595,6.464-15.3,6.464c-5.701,0-11.138-2.291-15.31-6.456l-16.791-16.792
		c-4.388-4.396-6.424-9.25-6.424-15.277c0-6.067,2.036-10.939,6.416-15.331c41.538-42.733,98.043-66.319,159.019-66.319
		c59.418,0,115.565,23.26,158.233,65.525c4.592,3.214,7.28,9.084,7.28,16.125c0,6-2.065,10.854-6.494,15.28l-16.71,16.771
		C407.163,250.424,401.728,252.72,396.02,252.72z M269.031,180.436c47.412,0,91.988,18.46,125.514,51.983
		c0.34,0.338,0.863,0.735,1.475,0.735c0.612,0,1.136-0.397,1.471-0.73l16.712-16.775c0.606-0.602,0.723-0.852,0.726-0.856l0,0
		c0,0,0.049-0.164,0.049-0.597c0-0.308-0.025-0.576-0.055-0.793l-0.706-0.71c-39.069-39.063-90.628-60.576-145.185-60.576
		c-55.645,0-107.166,21.478-145.078,60.479c-0.61,0.616-0.725,0.848-0.725,0.848l0,0c0,0-0.064,0.2-0.064,0.753
		c0,0.499,0.057,0.681,0.057,0.686l0,0c0,0,0.12,0.236,0.647,0.767l16.773,16.775c0.33,0.325,0.862,0.73,1.481,0.73
		c0.604,0,1.124-0.397,1.456-0.727C177.109,198.896,221.661,180.436,269.031,180.436z"/>
</g>
<g>
	<path fill="#FFFFFF" d="M327.726,319.792c-5.622,0-10.964-2.229-15.078-6.282c-12.454-11.229-28.339-17.666-43.617-17.666
		c-16.685,0-32.084,6.209-43.363,17.488c-4.156,4.164-9.593,6.46-15.301,6.46c-5.728,0-11.163-2.314-15.304-6.509l-16.736-16.734
		c-4.17-4.168-6.469-9.607-6.469-15.313c0.002-5.706,2.301-11.144,6.473-15.312c24.588-24.59,55.953-37.593,90.7-37.593
		c34.722,0,66.11,12.999,90.774,37.588c8.587,8.595,8.587,22.04,0.013,30.626l-16.785,16.784
		C338.86,317.497,333.424,319.792,327.726,319.792z M269.031,276.279c20.146,0,40.897,8.341,56.93,22.886l0.384,0.37
		c1.039,1.052,2.26,0.544,2.853-0.044l16.779-16.778c0.976-0.977,0.976-1.972-0.001-2.947
		c-20.902-20.844-47.514-31.869-76.945-31.869c-29.443,0-56.023,11.02-76.867,31.869c-0.34,0.339-0.737,0.86-0.737,1.471
		s0.4,1.137,0.731,1.471l16.786,16.784c1.144,1.154,2.297,0.594,2.882,0.009C226.807,284.522,247.122,276.279,269.031,276.279z"/>
</g>
<g>
	<path fill="#FFFFFF" d="M269.031,391.629c-18.577,0-33.692-15.147-33.692-33.764c0-18.581,15.115-33.692,33.692-33.692
		c18.618,0,33.769,15.111,33.769,33.692C302.8,376.482,287.648,391.629,269.031,391.629z M269.031,343.739
		c-7.787,0-14.123,6.339-14.123,14.127c0,7.828,6.336,14.193,14.123,14.193c7.831,0,14.202-6.365,14.202-14.193
		C283.232,350.078,276.861,343.739,269.031,343.739z"/>
</g>
</svg>
