<?xml version="1.0" encoding="utf-8"?>
<!-- Generator: Adobe Illustrator 16.0.0, SVG Export Plug-In . SVG Version: 6.00 Build 0)  -->
<!DOCTYPE svg PUBLIC "-//W3C//DTD SVG 1.1//EN" "http://www.w3.org/Graphics/SVG/1.1/DTD/svg11.dtd">
<svg version="1.1" id="Layer_1" xmlns="http://www.w3.org/2000/svg" xmlns:xlink="http://www.w3.org/1999/xlink" x="0px" y="0px"
	 width="540.808px" height="515.709px" viewBox="0 0 540.808 515.709" enable-background="new 0 0 540.808 515.709"
	 xml:space="preserve">
<circle fill="#3AD9CE" cx="271.535" cy="257.535" r="246.535"/>
<g>
	<path fill="#FFFFFF" d="M350.156,341.62V136.792c0-10.2-8.298-18.498-18.498-18.498H169.777c-10.2,0-18.498,8.298-18.498,18.498
		v56.159c0,4.128,3.358,7.486,7.488,7.486c4.128,0,7.484-3.358,7.484-7.486v-56.159c0-1.946,1.581-3.529,3.525-3.529h161.881
		c1.946,0,3.53,1.583,3.53,3.529V341.62c0,1.946-1.584,3.529-3.53,3.529H169.777c-1.944,0-3.525-1.583-3.525-3.529V239.39
		c0-4.126-3.356-7.483-7.484-7.483c-4.13,0-7.488,3.357-7.488,7.483V341.62c0,10.2,8.298,18.498,18.498,18.498h161.881
		C341.858,360.118,350.156,351.82,350.156,341.62z"/>
	<path fill="#FFFFFF" d="M164.055,222.904c1.397-1.394,2.197-3.324,2.197-5.298c0-1.965-0.8-3.894-2.193-5.289
		c-1.386-1.392-3.314-2.189-5.291-2.189c-1.978,0-3.907,0.798-5.297,2.189c-1.394,1.396-2.191,3.324-2.191,5.289
		c0,1.962,0.798,3.889,2.191,5.294c1.394,1.396,3.323,2.197,5.297,2.197C160.738,225.097,162.667,224.294,164.055,222.904z"/>
	<path fill="#FFFFFF" d="M180.821,367.207c-1.967,0-3.896,0.798-5.293,2.193c-1.394,1.397-2.191,3.328-2.191,5.293
		c0,1.97,0.8,3.898,2.191,5.289c1.392,1.394,3.32,2.193,5.293,2.193c1.975,0,3.906-0.8,5.295-2.191
		c1.394-1.393,2.193-3.321,2.193-5.291c0-1.961-0.798-3.889-2.195-5.297C184.722,368.004,182.79,367.207,180.821,367.207z"/>
	<path fill="#FFFFFF" d="M202.851,382.179H353.72c10.198,0,18.494-8.298,18.494-18.498V147.838c0-4.128-3.356-7.486-7.482-7.486
		c-4.128,0-7.484,3.358-7.484,7.486v215.843c0,1.946-1.583,3.529-3.527,3.529H202.851c-4.129,0-7.485,3.356-7.485,7.482
		C195.365,378.821,198.722,382.179,202.851,382.179z"/>
	<path fill="#FFFFFF" d="M386.789,162.344c-4.128,0-7.484,3.356-7.484,7.482v215.843c0,1.946-1.581,3.529-3.525,3.529H202.885
		c-4.128,0-7.484,3.356-7.484,7.482c0,4.128,3.356,7.486,7.484,7.486h172.895c10.2,0,18.498-8.298,18.498-18.498V169.827
		C394.277,165.701,390.919,162.344,386.789,162.344z"/>
	<path fill="#FFFFFF" d="M242.457,159.04h-52.856c-4.128,0-7.484,3.356-7.484,7.482v52.862c0,4.128,3.356,7.486,7.484,7.486h52.856
		c4.13,0,7.488-3.358,7.488-7.486v-52.862C249.945,162.396,246.587,159.04,242.457,159.04z M234.975,174.008v37.89h-37.892v-37.89
		H234.975z"/>
	<path fill="#FFFFFF" d="M226.145,248.492c-2.831-2.831-7.767-2.829-10.586,0l-13.242,13.238l-5.405-5.407
		c-2.829-2.831-7.765-2.827-10.582-0.002c-1.417,1.414-2.197,3.293-2.197,5.293s0.78,3.878,2.195,5.291l10.7,10.704
		c1.415,1.413,3.293,2.189,5.289,2.189c1.999,0,3.879-0.776,5.296-2.191l18.532-18.532
		C229.061,256.156,229.061,251.41,226.145,248.492z"/>
	<path fill="#FFFFFF" d="M243.235,262.881c0,4.128,3.357,7.486,7.485,7.486h64.236c4.128,0,7.485-3.358,7.485-7.486
		s-3.357-7.486-7.485-7.486h-64.236C246.593,255.395,243.235,258.753,243.235,262.881z"/>
	<path fill="#FFFFFF" d="M273.294,174.008h38.546c4.126,0,7.483-3.358,7.483-7.486c0-4.126-3.357-7.482-7.483-7.482h-38.546
		c-4.126,0-7.482,3.356-7.482,7.482C265.812,170.65,269.168,174.008,273.294,174.008z"/>
	<path fill="#FFFFFF" d="M273.294,200.438h38.546c4.126,0,7.483-3.358,7.483-7.486c0-4.126-3.357-7.483-7.483-7.483h-38.546
		c-4.126,0-7.482,3.357-7.482,7.483C265.812,197.08,269.168,200.438,273.294,200.438z"/>
	<path fill="#FFFFFF" d="M273.294,226.871h38.546c4.126,0,7.483-3.358,7.483-7.486s-3.357-7.486-7.483-7.486h-38.546
		c-4.126,0-7.482,3.358-7.482,7.486S269.168,226.871,273.294,226.871z"/>
	<path fill="#FFFFFF" d="M215.559,290.54l-13.242,13.237l-5.405-5.406c-1.414-1.413-3.293-2.192-5.291-2.192c-0.002,0,0,0-0.002,0
		c-1.998,0-3.877,0.779-5.291,2.192c-1.415,1.414-2.195,3.295-2.195,5.295s0.78,3.878,2.195,5.291l10.7,10.7
		c1.415,1.413,3.293,2.189,5.289,2.189c1.999,0,3.879-0.776,5.296-2.191l18.534-18.531c2.912-2.92,2.912-7.668-0.004-10.586
		C223.312,287.71,218.378,287.714,215.559,290.54z"/>
	<path fill="#FFFFFF" d="M314.957,297.246h-64.236c-4.128,0-7.485,3.356-7.485,7.482c0,4.128,3.357,7.486,7.485,7.486h64.236
		c4.128,0,7.485-3.358,7.485-7.486C322.442,300.602,319.085,297.246,314.957,297.246z"/>
</g>
</svg>
