<?xml version="1.0" encoding="utf-8"?>
<!-- Generator: Adobe Illustrator 16.0.0, SVG Export Plug-In . SVG Version: 6.00 Build 0)  -->
<!DOCTYPE svg PUBLIC "-//W3C//DTD SVG 1.1//EN" "http://www.w3.org/Graphics/SVG/1.1/DTD/svg11.dtd">
<svg version="1.1" id="Layer_1" xmlns="http://www.w3.org/2000/svg" xmlns:xlink="http://www.w3.org/1999/xlink" x="0px" y="0px"
	 width="1086.102px" height="595.28px" viewBox="0 0 1086.102 595.28" enable-background="new 0 0 1086.102 595.28"
	 xml:space="preserve">
<path fill="#0F0B10" stroke="#000000" stroke-miterlimit="10" d="M180.544,130.829c0,2.341,1.894,4.236,4.235,4.236
	c2.341,0,4.235-1.895,4.235-4.236c0-39.705-32.583-72.287-72.287-72.287c-21.497,0-41.802,9.998-55.345,26.127v-4.667
	c0-2.341-1.895-4.236-4.236-4.236c-2.341,0-4.235,1.895-4.235,4.236v17.993c0,4.042,5.221,4.621,4.235,4.236
	c0.087,0,0.174-0.004,0.261-0.008l16.942-1.051c2.337-0.145,4.112-2.155,3.967-4.488c-0.145-2.333-2.184-4.091-4.488-3.967
	l-8.583,0.534c11.888-16.171,31.122-26.238,51.481-26.238C151.762,67.013,180.544,95.794,180.544,130.829"/>
<path fill="#0F0B10" stroke="#000000" stroke-miterlimit="10" d="M116.728,203.116c21.497,0,41.802-9.998,55.345-26.128v4.667
	c0,2.342,1.895,4.236,4.235,4.236c2.342,0,4.236-1.895,4.236-4.236v-17.992c0-2.327-2.231-4.355-4.497-4.229l-16.941,1.052
	c-2.338,0.145-4.112,2.154-3.967,4.487c0.145,2.333,2.229,4.112,4.487,3.967l8.582-0.533c-11.888,16.17-31.121,26.237-51.48,26.237
	c-35.035,0-63.816-28.781-63.816-63.816c0-2.341-1.895-4.235-4.236-4.235c-2.341,0-4.235,1.895-4.235,4.235
	C44.44,170.533,77.023,203.116,116.728,203.116"/>
<path d="M471.662,82.41l-0.291-0.067l-64.72-21.977c-1.254-0.232-2.221-0.236-3.185-0.012L338.68,82.371
	c-3.96,1.218-4.124,3.922-4.117,4.451l0,84.739c0,1.844,1.152,3.419,3.007,4.112l66.019,25.469c0.256,0.108,0.749,0.203,1.504,0.203
	h0c0.83,0,1.487-0.113,1.654-0.174l66.072-25.463c1.869-0.697,3.021-2.272,3.021-4.117V86.852
	C475.842,86.692,475.794,82.94,471.662,82.41z M400.565,190.33l-57.023-22.018V93.585l57.023,21.708V190.33z M405.203,107.193
	l-52.962-20.135l52.962-17.751l52.961,17.751L405.203,107.193z M466.863,168.312l-57.022,22.018v-74.854l57.022-21.896V168.312z"/>
<path fill="#0B050C" stroke="#000000" stroke-width="2" stroke-miterlimit="10" d="M1019.894,413.755H938.09
	c-4.602,0-8.348-3.745-8.348-8.348v-51.661c0-1.536,1.246-2.781,2.784-2.781c1.535,0,2.782,1.245,2.782,2.781v51.661
	c0,1.534,1.248,2.783,2.781,2.783h81.804c1.535,0,2.784-1.249,2.784-2.783V301.9c0-1.535-1.249-2.783-2.784-2.783H938.09
	c-1.533,0-2.781,1.248-2.781,2.783v28.38c0,1.538-1.247,2.783-2.782,2.783c-1.538,0-2.784-1.245-2.784-2.783V301.9
	c0-4.604,3.746-8.348,8.348-8.348h81.804c4.604,0,8.348,3.744,8.348,8.348v103.507
	C1028.241,410.01,1024.497,413.755,1019.894,413.755"/>
<path fill="#0B050C" stroke="#000000" stroke-width="2" stroke-miterlimit="10" d="M932.526,345.523
	c-0.732,0-1.45-0.297-1.969-0.815c-0.516-0.521-0.815-1.235-0.815-1.97c0-0.729,0.297-1.447,0.815-1.967
	c0.519-0.519,1.236-0.812,1.969-0.812c0.73,0,1.448,0.294,1.966,0.812c0.519,0.52,0.816,1.235,0.816,1.967
	c0,0.734-0.298,1.452-0.816,1.97C933.975,345.227,933.257,345.523,932.526,345.523"/>
<path fill="#0B050C" stroke="#000000" stroke-width="2" stroke-miterlimit="10" d="M943.671,424.901
	c-0.73,0-1.448-0.295-1.967-0.815c-0.518-0.518-0.815-1.232-0.815-1.967c0-0.731,0.298-1.449,0.815-1.968
	c0.519-0.518,1.236-0.815,1.967-0.815c0.734,0,1.45,0.298,1.969,0.815c0.516,0.519,0.815,1.236,0.815,1.968
	c0,0.734-0.298,1.449-0.815,1.967C945.121,424.606,944.405,424.901,943.671,424.901"/>
<path fill="#0B050C" stroke="#000000" stroke-width="2" stroke-miterlimit="10" d="M1031.042,424.903h-76.239
	c-1.537,0-2.782-1.247-2.782-2.783s1.245-2.782,2.782-2.782h76.239c1.533,0,2.782-1.249,2.782-2.783V307.482
	c0-1.536,1.246-2.783,2.782-2.783c1.537,0,2.781,1.247,2.781,2.783v109.072C1039.388,421.158,1035.645,424.903,1031.042,424.903"/>
<path fill="#0B050C" stroke="#000000" stroke-width="2" stroke-miterlimit="10" d="M1042.189,436.015H954.82
	c-1.536,0-2.782-1.245-2.782-2.783c0-1.536,1.246-2.781,2.782-2.781h87.369c1.535,0,2.781-1.249,2.781-2.783V318.595
	c0-1.536,1.247-2.782,2.782-2.782c1.537,0,2.784,1.246,2.784,2.782v109.072C1050.537,432.27,1046.791,436.015,1042.189,436.015"/>
<path fill="#0B050C" stroke="#000000" stroke-width="2" stroke-miterlimit="10" d="M974.817,346.42h-26.71
	c-1.535,0-2.782-1.247-2.782-2.783v-26.712c0-1.536,1.247-2.781,2.782-2.781h26.71c1.538,0,2.784,1.245,2.784,2.781v26.712
	C977.602,345.173,976.355,346.42,974.817,346.42 M950.889,340.854h21.147v-21.146h-21.147V340.854z"/>
<path fill="#0B050C" stroke="#000000" stroke-width="2" stroke-miterlimit="10" d="M954.533,373.167L954.533,373.167
	c-0.737,0-1.444-0.293-1.967-0.815l-5.406-5.407c-1.088-1.086-1.088-2.848,0-3.935c1.087-1.087,2.848-1.087,3.935,0l3.438,3.439
	l7.398-7.396c1.085-1.087,2.848-1.087,3.936,0c1.085,1.086,1.085,2.849,0,3.935l-9.365,9.364
	C955.979,372.874,955.272,373.167,954.533,373.167"/>
<path fill="#0B050C" stroke="#000000" stroke-width="2" stroke-miterlimit="10" d="M1011.454,368.401h-32.461
	c-1.538,0-2.782-1.245-2.782-2.783c0-1.536,1.244-2.783,2.782-2.783h32.461c1.538,0,2.782,1.247,2.782,2.783
	C1014.236,367.156,1012.992,368.401,1011.454,368.401"/>
<path fill="#0B050C" stroke="#000000" stroke-width="2" stroke-miterlimit="10" d="M1009.879,319.708H990.4
	c-1.537,0-2.781-1.245-2.781-2.783c0-1.536,1.244-2.781,2.781-2.781h19.479c1.535,0,2.781,1.245,2.781,2.781
	C1012.66,318.463,1011.414,319.708,1009.879,319.708"/>
<path fill="#0B050C" stroke="#000000" stroke-width="2" stroke-miterlimit="10" d="M1009.879,333.063H990.4
	c-1.537,0-2.781-1.245-2.781-2.783c0-1.535,1.244-2.782,2.781-2.782h19.479c1.535,0,2.781,1.247,2.781,2.782
	C1012.66,331.818,1011.414,333.063,1009.879,333.063"/>
<path fill="#0B050C" stroke="#000000" stroke-width="2" stroke-miterlimit="10" d="M1009.879,346.42H990.4
	c-1.537,0-2.781-1.247-2.781-2.783s1.244-2.783,2.781-2.783h19.479c1.535,0,2.781,1.247,2.781,2.783
	S1011.414,346.42,1009.879,346.42"/>
<path fill="#0B050C" stroke="#000000" stroke-width="2" stroke-miterlimit="10" d="M954.533,394.415L954.533,394.415
	c-0.737,0-1.444-0.293-1.967-0.815l-5.406-5.406c-1.088-1.086-1.088-2.848,0-3.936c1.087-1.086,2.848-1.086,3.935,0l3.438,3.439
	l7.398-7.396c1.085-1.086,2.848-1.086,3.936,0c1.085,1.087,1.085,2.849,0,3.936l-9.365,9.363
	C955.979,394.122,955.272,394.415,954.533,394.415"/>
<path fill="#0B050C" stroke="#000000" stroke-width="2" stroke-miterlimit="10" d="M1011.454,389.548h-32.461
	c-1.538,0-2.782-1.246-2.782-2.783c0-1.536,1.244-2.782,2.782-2.782h32.461c1.538,0,2.782,1.246,2.782,2.782
	C1014.236,388.302,1012.992,389.548,1011.454,389.548"/>
<path d="M177.784,323.806c-7.573-8.214-17.964-12.737-29.259-12.737c-8.45,0-16.188,2.671-23,7.939
	c-3.25,2.512-6.231,5.581-8.87,9.13c-2.639-3.548-5.62-6.618-8.87-9.13c-6.811-5.269-14.549-7.939-23-7.939
	c-11.295,0-21.687,4.523-29.26,12.737c-7.474,8.106-11.59,19.177-11.59,31.17c0,12.339,4.589,23.622,14.441,35.51
	c8.771,10.583,21.352,21.306,35.946,33.743c4.937,4.207,10.532,8.975,16.418,14.121c1.636,1.433,3.737,2.222,5.914,2.222
	c2.178,0,4.277-0.788,5.912-2.22c5.936-5.19,11.765-10.157,16.449-14.147c14.565-12.413,27.145-23.134,35.918-33.719
	c9.852-11.886,14.44-23.17,14.44-35.51C189.374,342.982,185.258,331.912,177.784,323.806z M84.786,320.53
	c6.307,0,12.098,2.005,17.212,5.96c4.578,3.541,7.769,8.022,9.64,11.159c1.067,1.784,2.942,2.85,5.018,2.85
	c2.076,0,3.951-1.065,5.017-2.851c1.872-3.136,5.063-7.618,9.64-11.158c5.115-3.955,10.906-5.96,17.213-5.96
	c8.624,0,16.544,3.44,22.303,9.688c5.859,6.355,9.086,15.147,9.086,24.758c0,10.148-3.782,19.239-12.263,29.474
	c-8.244,9.946-20.526,20.414-34.771,32.554c-4.598,3.917-10.299,8.775-16.236,13.94c-5.649-4.935-11.086-9.57-15.895-13.67
	l-0.317-0.271c-14.233-12.129-26.524-22.604-34.77-32.554c-8.482-10.234-12.265-19.324-12.265-29.474
	c0-9.611,3.227-18.404,9.086-24.758C68.243,323.971,76.164,320.53,84.786,320.53z"/>
<path d="M1033.906,103.321c-1.859-21.224-19.398-37.703-40.5-37.764h-0.115c-12.536,0-24.587,5.786-32.542,15.551
	c-0.198-0.088-0.396-0.171-0.585-0.246c-0.318-0.133-0.648-0.254-0.932-0.345c-0.525-0.185-1.023-0.339-1.452-0.452
	c-0.263-0.079-0.521-0.146-0.788-0.212l-0.17-0.042c-0.55-0.124-1.113-0.224-1.679-0.308l-0.266-0.043
	c-0.164-0.027-0.329-0.054-0.533-0.08c-0.916-0.101-1.738-0.151-2.578-0.153c-12.342,0-22.425,9.984-22.572,22.299
	c-9.683,5.739-16.134,16.873-16.165,28.084c-0.023,8.38,3.224,16.274,9.146,22.229c5.921,5.955,13.798,9.248,22.177,9.271
	l11.846,0.034c2.313,0,4.199-1.881,4.203-4.191c0.004-1.12-0.43-2.176-1.222-2.973c-0.793-0.799-1.848-1.24-2.969-1.244
	l-11.834-0.034c-12.685-0.036-22.976-10.385-22.939-23.069c0.026-8.851,5.811-18.019,13.745-21.795l2.395-1.126l0.007-2.651
	c0.001-0.163,0.01-0.327,0.019-0.494l0.044-0.756l-0.04-0.73c-0.014-0.107-0.016-0.219-0.016-0.322
	c0.022-7.796,6.383-14.14,14.217-14.14c0.646,0.002,1.311,0.076,1.877,0.148l0.178,0.027c0.102,0.017,0.203,0.033,0.307,0.045
	c0.533,0.104,1.051,0.209,1.494,0.343c0.102,0.034,0.212,0.062,0.345,0.091c0.486,0.157,1.012,0.363,1.646,0.646
	c0.133,0.059,0.264,0.124,0.391,0.187c0.563,0.285,1.019,0.543,1.437,0.82c4.057,2.652,6.47,7.105,6.455,11.912
	c-0.004,1.122,0.432,2.179,1.225,2.977c0.794,0.799,1.848,1.24,2.981,1.243c2.312,0,4.197-1.881,4.202-4.194
	c0.019-6.024-2.367-11.756-6.603-15.995c6.337-7.379,15.977-11.902,25.643-11.902c15.883,0.046,29.485,12.207,31.871,28.069
	c-2.688-0.083-5.241,0.05-7.503,0.393c-1.109,0.163-2.089,0.749-2.759,1.651c-0.672,0.904-0.95,2.017-0.783,3.143
	c0.319,2.062,2.064,3.562,4.16,3.568c0.204,0,0.406-0.017,0.622-0.05c1.426-0.213,3.016-0.321,4.728-0.321
	c3.009,0,5.376,0.339,5.388,0.338c9.802,1.889,17.172,10.964,17.144,21.111c-0.033,11.614-9.51,21.062-21.184,21.062l-9.142-0.026
	c-2.312,0-4.197,1.881-4.204,4.192c-0.006,2.317,1.874,4.208,4.191,4.215l9.216,0.026c0.002,0,0.002,0,0.002,0
	c16.235,0,29.48-13.209,29.527-29.446C1054.694,118.982,1046.045,107.184,1033.906,103.321z M1025.129,159.435L1025.129,159.435
	v0.001V159.435z"/>
<g>
	<path d="M749.102,372.718c-2.5,0-4.883-1.007-6.709-2.833c-13.068-13.066-30.445-20.264-48.929-20.264
		c-18.464,0-35.831,7.197-48.9,20.265c-1.82,1.825-4.203,2.832-6.703,2.832c-2.498,0-4.88-1.005-6.708-2.829l-7.356-7.356
		c-1.923-1.926-2.815-4.053-2.815-6.693c0-2.659,0.893-4.794,2.812-6.717c18.199-18.724,42.956-29.057,69.672-29.057
		c26.033,0,50.633,10.191,69.327,28.709c2.012,1.407,3.189,3.98,3.189,7.064c0,2.628-0.904,4.756-2.846,6.695l-7.32,7.347
		C753.984,371.711,751.603,372.718,749.102,372.718z M693.464,341.047c20.772,0,40.303,8.089,54.992,22.776
		c0.148,0.147,0.378,0.321,0.646,0.321c0.269,0,0.498-0.174,0.645-0.32l7.322-7.349c0.266-0.265,0.316-0.374,0.317-0.376l0,0
		c0,0,0.021-0.071,0.021-0.261c0-0.136-0.011-0.253-0.023-0.349l-0.31-0.311c-17.117-17.114-39.707-26.541-63.61-26.541
		c-24.38,0-46.953,9.41-63.563,26.498c-0.268,0.271-0.318,0.371-0.318,0.372l0,0c0,0-0.028,0.088-0.028,0.33
		c0,0.219,0.025,0.299,0.025,0.3l0,0c0.001,0,0.053,0.104,0.283,0.336l7.349,7.35c0.145,0.144,0.378,0.32,0.649,0.32
		c0.265,0,0.492-0.173,0.638-0.318C653.189,349.136,672.709,341.047,693.464,341.047z"/>
</g>
<g>
	<path d="M719.18,402.104c-2.463,0-4.804-0.977-6.606-2.752c-5.456-4.92-12.416-7.739-19.109-7.739
		c-7.311,0-14.058,2.721-18.999,7.661c-1.821,1.824-4.203,2.83-6.704,2.83c-2.51,0-4.891-1.013-6.705-2.852l-7.333-7.332
		c-1.827-1.826-2.834-4.208-2.834-6.709c0.001-2.5,1.008-4.883,2.836-6.709c10.772-10.773,24.515-16.471,39.739-16.471
		c15.213,0,28.965,5.695,39.771,16.469c3.763,3.766,3.763,9.657,0.006,13.418l-7.354,7.354
		C724.059,401.099,721.677,402.104,719.18,402.104z M693.464,383.039c8.826,0,17.918,3.655,24.942,10.027l0.169,0.162
		c0.455,0.461,0.99,0.239,1.25-0.02l7.352-7.352c0.427-0.428,0.427-0.863-0.001-1.291c-9.158-9.132-20.817-13.962-33.712-13.962
		c-12.9,0-24.546,4.828-33.679,13.962c-0.148,0.148-0.322,0.378-0.322,0.646s0.175,0.498,0.32,0.644l7.354,7.354
		c0.501,0.506,1.007,0.259,1.263,0.003C674.964,386.651,683.864,383.039,693.464,383.039z"/>
</g>
<g>
	<path d="M693.464,433.578c-8.14,0-14.762-6.636-14.762-14.792c0-8.141,6.622-14.763,14.762-14.763
		c8.157,0,14.795,6.622,14.795,14.763C708.259,426.942,701.621,433.578,693.464,433.578z M693.464,412.596
		c-3.412,0-6.188,2.777-6.188,6.19c0,3.429,2.776,6.219,6.188,6.219c3.431,0,6.222-2.79,6.222-6.219
		C699.686,415.373,696.895,412.596,693.464,412.596z"/>
</g>
<g>
	<path d="M456.379,395.227c-5.17,0-9.812-1.497-13.072-4.209c-2.868-2.386-4.607-5.697-5.102-9.56h36.496
		C473.476,390.968,464.892,395.227,456.379,395.227L456.379,395.227z M406.333,349.695c-8.344,0-15.11-6.766-15.11-15.112
		c0-8.346,6.766-15.109,15.112-15.109c8.344,0,15.11,6.766,15.11,15.109C421.436,342.927,414.676,349.686,406.333,349.695z
		 M409.901,406.421h-7.134v-52.318c2.355,0.464,4.78,0.464,7.134,0V406.421z M391.475,411.178h29.72v4.754h-29.72V411.178z
		 M385.531,420.688h41.606v6.241h-41.606V420.688z M356.142,395.227c-5.171,0-9.813-1.495-13.072-4.208
		c-2.87-2.387-4.607-5.698-5.104-9.561h36.497C373.236,390.968,364.652,395.227,356.142,395.227z M356.142,341.749l15.781,34.953
		h-31.562L356.142,341.749z M346.46,331.678c-0.002-1.209,0.96-2.198,2.168-2.229h38.513c-0.37,1.46-0.588,2.954-0.652,4.458
		h-29.394c-0.013,0-0.026-0.063-0.039-0.068c-0.041-0.015-0.079-0.06-0.121-0.072c-0.035-0.013-0.069-0.037-0.106-0.049
		c-0.035-0.011-0.075-0.029-0.114-0.039c-0.039-0.007-0.077-0.02-0.116-0.029c-0.038-0.009-0.073-0.016-0.11-0.02
		c-0.039-0.006-0.079-0.013-0.117-0.015c-0.039-0.006-0.077-0.008-0.117-0.01c-0.039-0.004-0.073-0.004-0.11-0.004
		c-0.042,0-0.083,0-0.125,0.004c-0.035,0-0.067,0.004-0.103,0.008c-0.044,0.003-0.086,0.008-0.128,0.015
		c-0.035,0.005-0.068,0.011-0.101,0.018c-0.042,0.008-0.084,0.017-0.125,0.028c-0.035,0.008-0.07,0.018-0.104,0.03
		c-0.035,0.01-0.077,0.022-0.115,0.037c-0.041,0.013-0.075,0.081-0.114,0.096c-0.013,0.006-0.029,0.07-0.042,0.07h-6.561
		C347.42,333.874,346.458,332.886,346.46,331.678z M463.738,329.448c1.231,0,2.23,0.999,2.23,2.229c0,1.229-0.999,2.229-2.23,2.229
		h-6.256c-0.014,0-0.026-0.063-0.039-0.068c-0.04-0.015-0.079-0.06-0.119-0.072c-0.042-0.013-0.073-0.038-0.111-0.049
		c-0.037-0.012-0.072-0.027-0.108-0.037c-0.037-0.009-0.081-0.021-0.123-0.031c-0.033-0.006-0.067-0.013-0.103-0.019
		c-0.042-0.007-0.084-0.013-0.125-0.016c-0.034-0.004-0.071-0.007-0.107-0.01c-0.041,0-0.079-0.002-0.121-0.002
		c-0.04,0-0.075,0-0.113,0.002c-0.039,0.003-0.075,0.006-0.114,0.01c-0.036,0.002-0.078,0.007-0.117,0.015
		c-0.04,0.005-0.073,0.011-0.109,0.018c-0.037,0.008-0.077,0.017-0.118,0.026c-0.04,0.011-0.075,0.021-0.111,0.031
		c-0.038,0.012-0.073,0.023-0.108,0.034c-0.036,0.013-0.08,0.085-0.119,0.1c-0.013,0.007-0.025,0.068-0.036,0.068h-29.397
		c-0.064-1.503-0.282-2.997-0.652-4.458H463.738z M472.308,376.702h-31.562l15.783-34.953L472.308,376.702z M477.536,376.783
		l-17.235-38.121h3.438c3.857,0,6.984-3.128,6.984-6.984c0-3.858-3.127-6.984-6.984-6.984h-40.175
		c-3.535-6.182-10.11-9.994-17.23-9.994c-7.118,0-13.691,3.812-17.229,9.994h-40.477c-3.857,0-6.984,3.126-6.984,6.984
		c0,3.856,3.127,6.984,6.984,6.984h3.74l-17.236,38.121c-1.178,0.143-2.065,1.143-2.069,2.329c0,6.41,2.408,11.789,6.962,15.579
		c4.113,3.424,9.836,5.3,16.114,5.3c13.673,0,23.225-8.596,23.225-20.902c-0.004-1.241-0.982-2.262-2.223-2.317l-17.23-38.109
		h26.956c1.265,6.24,5.498,11.268,11.145,13.903v53.855h-8.775c-1.312,0-2.518,1.079-2.518,2.393v7.118h-3.645
		c-0.61-0.021-1.204,0.214-1.64,0.645c-0.434,0.432-0.672,1.023-0.66,1.635v10.965c0,1.312,0.988,2.507,2.3,2.507h46.521
		c1.312,0,2.298-1.194,2.298-2.507v-10.965c0.016-0.611-0.223-1.203-0.657-1.635c-0.437-0.431-1.03-0.665-1.641-0.645h-3.646v-7.118
		c0-1.313-1.202-2.393-2.517-2.393h-8.776v-53.855c5.646-2.636,9.882-7.663,11.145-13.903h26.958l-17.23,38.106
		c-1.246,0.067-2.222,1.097-2.225,2.344c0,6.41,2.407,11.789,6.962,15.579c4.112,3.424,9.836,5.3,16.114,5.3
		c13.673,0,23.225-8.57,23.225-20.875C479.602,377.929,478.717,376.928,477.536,376.783z"/>
	<path d="M429.595,432.683h-46.521c-1.819,0-3.3-1.573-3.3-3.507v-10.965c-0.018-0.86,0.33-1.723,0.955-2.344
		c0.612-0.604,1.418-0.937,2.271-0.937l2.719,0.001v-6.118c0-1.839,1.611-3.393,3.518-3.393h7.775v-52.229
		c-5.573-2.797-9.511-7.669-10.945-13.53h-24.605l16.368,36.202c1.46,0.354,2.531,1.664,2.536,3.222
		c0,12.898-9.962,21.905-24.225,21.905c-6.52,0-12.469-1.965-16.754-5.531c-4.791-3.987-7.322-9.64-7.322-16.348
		c0.005-1.489,0.987-2.772,2.364-3.197l16.391-36.253h-2.19c-4.403,0-7.984-3.582-7.984-7.984s3.582-7.984,7.984-7.984h39.907
		c3.771-6.18,10.537-9.994,17.799-9.994c7.266,0,14.032,3.814,17.8,9.994h39.604c4.402,0,7.984,3.582,7.984,7.984
		s-3.582,7.984-7.984,7.984h-1.888l16.391,36.253c1.379,0.427,2.359,1.712,2.362,3.199c0,12.882-9.962,21.877-24.225,21.877
		c-6.52,0-12.47-1.965-16.754-5.531c-4.79-3.986-7.322-9.639-7.322-16.348c0.004-1.561,1.075-2.881,2.535-3.247l16.37-36.203
		h-24.607c-1.432,5.861-5.37,10.733-10.945,13.53v52.229h7.776c1.906,0,3.517,1.554,3.517,3.393v6.118h2.646
		c0.002,0,0.004,0,0.005,0c0.925,0,1.729,0.331,2.338,0.933c0.63,0.626,0.978,1.489,0.955,2.372v10.939
		C432.893,431.109,431.413,432.683,429.595,432.683z M383.068,416.932c-0.391,0-0.703,0.13-0.932,0.356
		c-0.236,0.234-0.37,0.564-0.362,0.902v10.985c0,0.728,0.522,1.507,1.3,1.507h46.521c0.776,0,1.298-0.779,1.298-1.507v-10.965
		c0.009-0.36-0.123-0.688-0.362-0.925c-0.228-0.226-0.543-0.355-0.861-0.355l-4.721,0.001v-8.118c0-0.729-0.723-1.393-1.517-1.393
		h-9.776v-55.492l0.577-0.27c5.556-2.594,9.415-7.403,10.587-13.195l0.162-0.802h29.326l-18.119,40.072l-0.607,0.033
		c-0.715,0.038-1.276,0.63-1.278,1.347c0,6.094,2.283,11.215,6.602,14.809c3.926,3.269,9.421,5.068,15.475,5.068
		c13.086,0,22.225-8.173,22.225-19.875c-0.001-0.681-0.513-1.258-1.188-1.341l-0.559-0.068l-18.105-40.045h4.987
		c3.3,0,5.984-2.685,5.984-5.984s-2.685-5.984-5.984-5.984h-40.755l-0.288-0.504c-3.347-5.854-9.617-9.49-16.362-9.49
		c-6.742,0-13.011,3.637-16.36,9.491l-0.288,0.503h-41.057c-3.3,0-5.984,2.685-5.984,5.984s2.685,5.984,5.984,5.984h5.29
		l-18.106,40.046l-0.559,0.068c-0.676,0.081-1.187,0.657-1.189,1.339c0,6.092,2.283,11.213,6.602,14.808
		c3.926,3.269,9.422,5.068,15.475,5.068c13.086,0,22.225-8.185,22.225-19.902c-0.002-0.706-0.559-1.286-1.268-1.318l-0.613-0.027
		l-18.122-40.081h29.324l0.162,0.802c1.174,5.793,5.033,10.603,10.587,13.195l0.577,0.27v55.492h-9.775
		c-0.794,0-1.518,0.664-1.518,1.393v8.118h-4.645C383.072,416.932,383.07,416.932,383.068,416.932z M428.138,427.929h-43.606v-8.241
		h43.606V427.929z M386.531,425.929h39.606v-4.241h-39.606V425.929z M422.194,416.932h-31.72v-6.754h31.72V416.932z
		 M392.475,414.932h27.72v-2.754h-27.72V414.932z M410.901,407.421h-9.134v-54.534l1.193,0.234c2.217,0.438,4.531,0.438,6.748,0
		l1.193-0.234V407.421z M403.767,405.421h5.134V355.28c-1.701,0.227-3.432,0.227-5.134,0V405.421z M456.379,396.227
		c-5.4,0-10.271-1.577-13.712-4.44c-3.037-2.526-4.923-6.054-5.454-10.201l-0.144-1.127h38.769l-0.145,1.128
		C474.822,388.34,469.242,396.227,456.379,396.227z M439.382,382.458c0.637,3.147,2.2,5.824,4.564,7.791
		c3.083,2.564,7.499,3.978,12.433,3.978c6.935,0,15.387-3.108,17.145-11.769H439.382z M356.142,396.227
		c-5.403,0-10.273-1.576-13.712-4.439c-3.036-2.524-4.922-6.053-5.456-10.201l-0.145-1.128H375.6l-0.146,1.128
		C374.583,388.34,369.003,396.227,356.142,396.227z M339.144,382.458c0.638,3.149,2.202,5.826,4.565,7.792
		c3.081,2.564,7.496,3.977,12.433,3.977c6.934,0,15.385-3.108,17.143-11.769H339.144z M473.856,377.702h-34.659l17.332-38.384
		L473.856,377.702z M442.295,375.702h28.464l-14.229-31.522L442.295,375.702z M373.471,377.702h-34.659l17.33-38.384
		L373.471,377.702z M341.91,375.702h28.464l-14.232-31.522L341.91,375.702z M406.334,350.695c-8.884,0-16.111-7.228-16.111-16.112
		c0-8.883,7.228-16.109,16.112-16.109c8.883,0,16.11,7.227,16.11,16.109C422.436,343.457,415.208,350.685,406.334,350.695z
		 M406.335,320.474c-7.781,0-14.112,6.329-14.112,14.109c0,7.781,6.33,14.112,14.11,14.112c7.772-0.009,14.103-6.341,14.112-14.113
		C420.445,326.803,414.116,320.474,406.335,320.474z M463.738,334.906H456.8l-0.118-0.293l-0.108-0.012l-0.187,0.009l-0.099,0.259
		l-0.71,0.037h-30.355l-0.041-0.957c-0.062-1.436-0.271-2.867-0.623-4.256l-0.315-1.245h39.495c1.781,0,3.23,1.449,3.23,3.229
		S465.52,334.906,463.738,334.906z M457.849,332.906h5.89c0.679,0,1.23-0.551,1.23-1.229s-0.552-1.229-1.23-1.229h-36.962
		c0.158,0.812,0.272,1.633,0.343,2.458h28.045l0.701-0.238c0.078-0.015,0.131-0.024,0.194-0.031
		c0.012-0.006,0.104-0.017,0.185-0.021l0.294-0.013l0.33,0.019c0.027,0.001,0.1,0.01,0.171,0.021L457.849,332.906z M387.447,334.906
		h-31.034l-0.117-0.291l-0.15-0.015v-1l-0.027,0.66l0.011,0.006l-0.013,0.028l-0.013,0.306l-0.036-0.193l-0.084,0.192l0.001,0.011
		l-0.006,0.001l-0.111,0.255l-0.679,0.04h-6.561c-1.791-0.048-3.171-1.466-3.168-3.23c-0.003-1.763,1.377-3.182,3.142-3.228h39.824
		l-0.316,1.246c-0.352,1.389-0.562,2.82-0.623,4.255L387.447,334.906z M348.628,330.448c-0.645,0.017-1.169,0.557-1.168,1.228
		c-0.001,0.674,0.523,1.213,1.195,1.23h6.106l0.285-0.12c0.007-0.005,0.082-0.028,0.143-0.046c0.003-0.004,0.081-0.025,0.156-0.043
		c0.011-0.005,0.086-0.021,0.161-0.036c0.036-0.007,0.089-0.017,0.146-0.024c0.05-0.009,0.123-0.018,0.199-0.022
		c0.033-0.004,0.1-0.01,0.169-0.01c-0.034-0.005,0.184-0.01,0.335,0.005c0.011,0.001,0.095,0.005,0.167,0.017
		c-0.033-0.008,0.037,0.001,0.104,0.012c0.046,0.005,0.119,0.018,0.198,0.036l0.635,0.232h28.091
		c0.069-0.824,0.184-1.646,0.342-2.458H348.628z"/>
</g>
<path fill="#0B050C" stroke="#000000" stroke-width="2" stroke-miterlimit="10" d="M741.324,201.214H644.33
	c-5.457,0-9.898-4.44-9.898-9.898v-61.254c0-1.822,1.479-3.298,3.301-3.298c1.82,0,3.299,1.477,3.299,3.298v61.254
	c0,1.819,1.48,3.3,3.299,3.3h96.994c1.82,0,3.301-1.48,3.301-3.3V68.588c0-1.82-1.48-3.3-3.301-3.3H644.33
	c-1.818,0-3.299,1.479-3.299,3.3v33.65c0,1.823-1.479,3.3-3.299,3.3c-1.822,0-3.301-1.477-3.301-3.3v-33.65
	c0-5.459,4.441-9.898,9.898-9.898h96.994c5.459,0,9.897,4.439,9.897,9.898v122.728C751.222,196.774,746.783,201.214,741.324,201.214
	"/>
<path fill="#0B050C" stroke="#000000" stroke-width="2" stroke-miterlimit="10" d="M637.732,120.312
	c-0.868,0-1.72-0.353-2.334-0.967c-0.611-0.617-0.967-1.466-0.967-2.335c0-0.865,0.353-1.716,0.967-2.333
	c0.614-0.614,1.466-0.963,2.334-0.963c0.866,0,1.718,0.349,2.332,0.963c0.614,0.617,0.967,1.465,0.967,2.333
	c0,0.87-0.353,1.721-0.967,2.335C639.45,119.96,638.599,120.312,637.732,120.312"/>
<path fill="#0B050C" stroke="#000000" stroke-width="2" stroke-miterlimit="10" d="M687.878,121.375h-31.671
	c-1.82,0-3.299-1.478-3.299-3.3V86.403c0-1.822,1.479-3.299,3.299-3.299h31.671c1.823,0,3.301,1.477,3.301,3.299v31.672
	C691.179,119.897,689.701,121.375,687.878,121.375 M659.506,114.775h25.073V89.703h-25.073V114.775z"/>
<path fill="#0B050C" stroke="#000000" stroke-width="2" stroke-miterlimit="10" d="M663.826,153.089L663.826,153.089
	c-0.874,0-1.712-0.348-2.332-0.967l-6.41-6.411c-1.289-1.288-1.289-3.376,0-4.666c1.289-1.288,3.377-1.288,4.666,0l4.076,4.079
	l8.772-8.77c1.287-1.29,3.377-1.29,4.666,0c1.286,1.287,1.286,3.376,0,4.665l-11.104,11.103
	C665.541,152.741,664.702,153.089,663.826,153.089"/>
<path fill="#0B050C" stroke="#000000" stroke-width="2" stroke-miterlimit="10" d="M731.317,147.438h-38.489
	c-1.823,0-3.299-1.477-3.299-3.3c0-1.822,1.476-3.3,3.299-3.3h38.489c1.823,0,3.299,1.478,3.299,3.3
	C734.616,145.961,733.141,147.438,731.317,147.438"/>
<path fill="#0B050C" stroke="#000000" stroke-width="2" stroke-miterlimit="10" d="M729.449,89.703h-23.095
	c-1.823,0-3.299-1.477-3.299-3.299c0-1.822,1.476-3.299,3.299-3.299h23.095c1.82,0,3.299,1.477,3.299,3.299
	C732.748,88.226,731.27,89.703,729.449,89.703"/>
<path fill="#0B050C" stroke="#000000" stroke-width="2" stroke-miterlimit="10" d="M729.449,105.538h-23.095
	c-1.823,0-3.299-1.477-3.299-3.3c0-1.82,1.476-3.298,3.299-3.298h23.095c1.82,0,3.299,1.478,3.299,3.298
	C732.748,104.062,731.27,105.538,729.449,105.538"/>
<path fill="#0B050C" stroke="#000000" stroke-width="2" stroke-miterlimit="10" d="M729.449,121.375h-23.095
	c-1.823,0-3.299-1.478-3.299-3.3s1.476-3.3,3.299-3.3h23.095c1.82,0,3.299,1.478,3.299,3.3S731.27,121.375,729.449,121.375"/>
<path fill="#0B050C" stroke="#000000" stroke-width="2" stroke-miterlimit="10" d="M663.826,178.283L663.826,178.283
	c-0.874,0-1.712-0.347-2.332-0.967l-6.41-6.411c-1.289-1.288-1.289-3.376,0-4.666c1.289-1.288,3.377-1.288,4.666,0l4.076,4.078
	l8.772-8.77c1.287-1.288,3.377-1.288,4.666,0c1.286,1.289,1.286,3.378,0,4.666l-11.104,11.103
	C665.541,177.936,664.702,178.283,663.826,178.283"/>
<path fill="#0B050C" stroke="#000000" stroke-width="2" stroke-miterlimit="10" d="M731.317,172.512h-38.489
	c-1.823,0-3.299-1.478-3.299-3.3s1.476-3.3,3.299-3.3h38.489c1.823,0,3.299,1.478,3.299,3.3S733.141,172.512,731.317,172.512"/>
<path fill="#0F0B10" d="M1000.939,179.249c-0.854-0.754-1.963-1.169-3.124-1.169c-1.38,0-2.678,0.576-3.561,1.58l-3.318,3.758
	c0.034-0.229,0.07-0.458,0.07-0.696v-12.886c0-2.576-2.088-4.664-4.665-4.664h-0.308c-2.576,0-4.664,2.088-4.664,4.664v12.886
	c0,0.238,0.036,0.467,0.07,0.696l-3.318-3.758c-0.883-1.004-2.181-1.58-3.561-1.58c-1.161,0-2.271,0.415-3.124,1.169
	c-0.947,0.837-1.513,1.992-1.591,3.254c-0.077,1.263,0.342,2.48,1.18,3.43l11.235,12.723c0.863,0.966,2.168,1.519,3.582,1.519
	c0.117,0,0.229-0.024,0.345-0.032c0.115,0.008,0.228,0.032,0.345,0.032c1.414,0,2.719-0.553,3.582-1.519l11.235-12.723
	c0.838-0.949,1.257-2.167,1.18-3.43C1002.452,181.241,1001.887,180.085,1000.939,179.249z"/>
<path fill="#0F0B10" d="M971.438,144.263c0.854,0.754,1.963,1.169,3.124,1.169c1.38,0,2.678-0.576,3.561-1.58l3.318-3.758
	c-0.034,0.229-0.07,0.458-0.07,0.696v12.886c0,2.576,2.088,4.664,4.665,4.664h0.308c2.576,0,4.664-2.088,4.664-4.664V140.79
	c0-0.238-0.036-0.467-0.07-0.696l3.318,3.758c0.883,1.004,2.181,1.58,3.561,1.58c1.161,0,2.271-0.415,3.124-1.169
	c0.947-0.837,1.513-1.992,1.591-3.254c0.077-1.263-0.342-2.48-1.18-3.43l-11.235-12.723c-0.863-0.966-2.168-1.519-3.582-1.519
	c-0.117,0-0.229,0.024-0.345,0.032c-0.115-0.008-0.228-0.032-0.345-0.032c-1.414,0-2.719,0.553-3.582,1.519l-11.235,12.723
	c-0.838,0.949-1.257,2.167-1.18,3.43C969.925,142.271,970.49,143.426,971.438,144.263z"/>
<g>
	<path stroke="#000000" stroke-width="2" stroke-miterlimit="10" d="M698.692-102.814H576.771c-1.602,0-2.906,1.303-2.906,2.908
		v87.092c0,1.602,1.305,2.909,2.906,2.909h121.922c1.602,0,2.906-1.308,2.906-2.909v-87.092
		C701.599-101.511,700.294-102.814,698.692-102.814L698.692-102.814z M695.801-22.737L659.838-58.7l-4.11,4.097L694.61-15.72
		H580.867l38.868-38.883L615.64-58.7l-35.963,35.963V-97h116.124V-22.737z M695.801-22.737"/>
	<path stroke="#000000" stroke-width="2" stroke-miterlimit="10" d="M689.933-97l-52.194,52.192L585.545-97h-5.868v2.337
		l56.006,56.007c1.135,1.134,2.963,1.134,4.098,0l56.021-56.007V-97H689.933z M689.933-97"/>
</g>
</svg>
