<?xml version="1.0" encoding="utf-8"?>
<!-- Generator: Adobe Illustrator 16.0.0, SVG Export Plug-In . SVG Version: 6.00 Build 0)  -->
<!DOCTYPE svg PUBLIC "-//W3C//DTD SVG 1.1//EN" "http://www.w3.org/Graphics/SVG/1.1/DTD/svg11.dtd">
<svg version="1.1" id="Layer_1" xmlns="http://www.w3.org/2000/svg" xmlns:xlink="http://www.w3.org/1999/xlink" x="0px" y="0px"
	 width="566.93px" height="566.93px" viewBox="0 0 566.93 566.93" enable-background="new 0 0 566.93 566.93" xml:space="preserve">
<path fill="#FFFFFF" d="M492.51,185.503c28.469,26.4,42.444,59.008,42.444,97.831c0,38.822-13.976,71.431-42.444,98.349
	c-28.47,26.399-62.631,39.856-102.488,39.856c-40.373,0-74.539-13.457-103.004-39.856c-27.952-26.918-41.928-59.526-41.928-98.349
	c0-38.823,13.976-71.431,41.928-97.831c28.465-26.915,62.631-40.374,103.004-40.374C429.879,145.129,464.04,158.588,492.51,185.503z
	"/>
<path fill="#3AD9CE" d="M280.146,185.503c28.467,26.4,42.442,59.008,42.442,97.831c0,38.822-13.976,71.431-42.442,98.349
	c-28.47,26.399-62.631,39.856-102.491,39.856c-40.37,0-74.536-13.457-103.001-39.856c-27.952-26.918-41.928-59.526-41.928-98.349
	c0-38.823,13.976-71.431,41.928-97.831c28.465-26.915,62.631-40.374,103.001-40.374
	C217.516,145.129,251.677,158.588,280.146,185.503z M129.519,331.989c12.942,12.942,28.985,19.671,48.137,19.671
	s35.198-6.729,48.142-19.671c12.938-13.457,19.67-29.504,19.67-48.655s-6.732-35.199-19.67-48.137
	c-12.943-13.459-28.99-20.19-48.142-20.19s-35.194,6.731-48.137,20.19c-12.942,12.938-19.671,28.985-19.671,48.137
	S116.576,319.052,129.519,331.989z"/>
<path fill="#0F0DA0" d="M492.51,185.503c28.469,26.4,42.444,59.008,42.444,97.831c0,38.822-13.976,71.431-42.444,98.349
	c-28.47,26.399-62.631,39.856-102.488,39.856c-40.373,0-74.539-13.457-103.004-39.856c-27.952-26.918-41.928-59.526-41.928-98.349
	c0-38.823,13.976-71.431,41.928-97.831c28.465-26.915,62.631-40.374,103.004-40.374C429.879,145.129,464.04,158.588,492.51,185.503z
	"/>
</svg>
